<svg xmlns="http://www.w3.org/2000/svg" xmlns:xlink="http://www.w3.org/1999/xlink" width="178" height="178" viewBox="0 0 178 178">
    <defs>
        <circle id="a" cx="62" cy="62" r="62"/>
        <path id="c" d="M17.778 13.867a1.778 1.778 0 1 1-3.555 0 1.778 1.778 0 0 1 3.555 0m-7.822-.085c.04 3.734 6.02 9.703 6.044 9.685-.006-.033 6.044-5.993 6.044-9.685.006-3.371-2.698-5.954-6.044-5.96-.124 0-.254.004-.756 0-2.834.232-5.309 2.78-5.288 5.96z"/>
        <path id="d" d="M13.889 10.833a1.389 1.389 0 1 1-2.778 0 1.389 1.389 0 0 1 2.778 0m-6.111-.066c.031 2.918 4.703 7.58 4.722 7.566-.005-.025 4.722-4.681 4.722-7.566.005-2.634-2.108-4.652-4.722-4.656-.097 0-.199.003-.59 0-2.215.181-4.148 2.172-4.132 4.656z"/>
        <path id="e" d="M13.889 10.833a1.389 1.389 0 1 1-2.778 0 1.389 1.389 0 0 1 2.778 0m-6.111-.066c.031 2.918 4.703 7.58 4.722 7.566-.005-.025 4.722-4.681 4.722-7.566.005-2.634-2.108-4.652-4.722-4.656-.097 0-.199.003-.59 0-2.215.181-4.148 2.172-4.132 4.656z"/>
        <path id="f" d="M17.778 13.867a1.778 1.778 0 1 1-3.555 0 1.778 1.778 0 0 1 3.555 0m-7.822-.085c.04 3.734 6.02 9.703 6.044 9.685-.006-.033 6.044-5.993 6.044-9.685.006-3.371-2.698-5.954-6.044-5.96-.124 0-.254.004-.756 0-2.834.232-5.309 2.78-5.288 5.96z"/>
        <path id="g" d="M10.556 8.233a1.055 1.055 0 1 1-2.111 0 1.055 1.055 0 0 1 2.11 0m-4.644-.05c.024 2.217 3.574 5.76 3.589 5.75-.004-.019 3.589-3.558 3.589-5.75.003-2.002-1.602-3.535-3.589-3.539-.073 0-.151.003-.449 0-1.682.138-3.152 1.651-3.14 3.54z"/>
        <path id="h" d="M17.778 13.867a1.778 1.778 0 1 1-3.555 0 1.778 1.778 0 0 1 3.555 0m-7.822-.085c.04 3.734 6.02 9.703 6.044 9.685-.006-.033 6.044-5.993 6.044-9.685.006-3.371-2.698-5.954-6.044-5.96-.124 0-.254.004-.756 0-2.834.232-5.309 2.78-5.288 5.96z"/>
    </defs>
    <g fill="none" fill-rule="evenodd">
        <circle cx="89" cy="89" r="60.969" fill="#5CB7E7"/>
        <circle cx="152.772" cy="125.441" r="7.709" fill="#8C4C9E"/>
        <circle cx="37.492" cy="148.217" r="12.965" fill="#FD8585"/>
        <circle cx="137.705" cy="28.382" r="12.965" fill="#5FBEA5"/>
        <circle cx="27.681" cy="129.295" r="5.957" fill="#005DAA"/>
        <g>
            <g transform="translate(27 27)">
                <mask id="b" fill="#fff">
                    <use xlink:href="#a"/>
                </mask>
                <use fill="#5CB7E7" xlink:href="#a"/>
                <g fill="#FFF200" mask="url(#b)">
                    <path d="M117.171 32.111h.001c-6.46-12.2-16.43-21.315-28.078-26.788l3.368 4.63 4.496.843 5.474 4.065-3.368 1.824 1.684 1.961 3.788 2.804 1.124 6.453 1.684 11.641 2.25 2.805-.56 3.928 6.174 8.271 5.615-.7.703-4.35 1.963 1.823c-.982-6.589-3.088-13.042-6.318-19.21M97.028 73.983l-7.299-5.467a2.001 2.001 0 0 0-.55-.29l-8.286-2.846-3.694-6.236a1.999 1.999 0 0 0-1.685-.98l-7.495-.136-9.063-3.648a2.051 2.051 0 0 0-.255-.083l-9.97-2.525a2.001 2.001 0 0 0-1.435.175l-5.079 2.721-1.463-.366.339-2.727a1.999 1.999 0 0 0-.507-1.596l-4.355-4.766a2 2 0 0 0-1.769-.629l-5.964.883-.784-2.154 3.542-5.417 7.932-2.345 2.955 3.94a1.998 1.998 0 0 0 3.599-1.154l.127-5.37 3.504-4.5 8.702-10.356 7.048 1.907a2.002 2.002 0 0 0 1.829-.416l3.087-2.662a1.999 1.999 0 1 0-1.13-3.507l-3.203-.283-.189-1.249a1.99 1.99 0 0 0-.58-1.133l-5.24-5.118.807-2.14a2.002 2.002 0 0 0-.623-2.268l-3.51-2.805a2.001 2.001 0 0 0-1.52-.419C47.156-.929 39.964 1.35 33.474 4.786A68.439 68.439 0 0 0 16.48 17.53a2.003 2.003 0 0 0-.51.921l-4.724 8.628a1.997 1.997 0 0 0-.238 1.14l.982 10.94c.025.285.113.563.256.813l3.932 6.87c.12.21.277.396.464.55l8.001 6.59a2 2 0 0 0 2.014.313l1.904-.76 3.077 1.783 1.985 3.22c.178.291.429.531.727.697l4.771 2.663c.092.05.188.094.286.13l2.901 1.064v13.471a2 2 0 0 0 .301 1.056l5.056 8.135c.169.272.401.5.675.663l5.931 3.53 1.495 4.95-.964 18.727c-.018.353.059.706.221 1.021l2.249 4.35c.262.507.729.878 1.282 1.018l6.598 1.683a1.999 1.999 0 0 0 1.45-3.694l-2.09-1.139-.083-2.125 1.448-4.032 4.643-.906c.326-.063.632-.208.889-.42l8.846-7.29c.279-.23.491-.534.612-.876l2.005-5.656 4.637-.904a2 2 0 0 0 1.475-1.223l4.537-11.397 3.912-5.256a2 2 0 0 0-.405-2.795"/>
                </g>
            </g>
            <g transform="translate(45 49)">
                <circle cx="39" cy="29" r="3" fill="#F15463"/>
                <circle cx="34" cy="14" r="3" fill="#F15463"/>
                <circle cx="46" cy="17" r="3" fill="#F15463"/>
                <circle cx="27.5" cy="22.5" r="2.5" fill="#F15463"/>
                <circle cx="27.5" cy="34.5" r="2.5" fill="#F15463"/>
                <circle cx="15.5" cy="27.5" r="2.5" fill="#F15463"/>
                <use fill="#FD8585" transform="translate(23 15)" xlink:href="#c"/>
                <use fill="#FD8585" transform="translate(33 6)" xlink:href="#d"/>
                <use fill="#FD8585" transform="translate(15 23)" xlink:href="#e"/>
                <use fill="#FD8585" transform="translate(0 14)" xlink:href="#f"/>
                <use fill="#FD8585" transform="translate(18 15)" xlink:href="#g"/>
                <use fill="#FD8585" transform="translate(18)" xlink:href="#h"/>
            </g>
        </g>
    </g>
</svg>
