<svg width="221" height="221" viewBox="0 0 221 221" fill="none" xmlns="http://www.w3.org/2000/svg">
<path d="M113.03 210.497C160.659 210.497 199.27 171.886 199.27 124.257C199.27 76.6278 160.659 38.0168 113.03 38.0168C65.4009 38.0168 26.79 76.6278 26.79 124.257C26.79 171.886 65.4009 210.497 113.03 210.497Z" fill="#5CB7E7"/>
<path d="M113.03 147.467C85.64 147.467 59.68 153.077 36.03 163.307C50.22 191.357 79.37 210.497 113.03 210.497C146.69 210.497 175.73 191.247 190.03 163.307C166.38 153.077 140.42 147.467 113.03 147.467Z" fill="#F8B954"/>
<path d="M155.38 149.337C155.38 144.827 152.19 141.197 148.01 140.317L139.65 122.607C138.22 119.417 134.92 117.437 131.51 117.437H96.53C92.9 117.437 89.71 119.527 88.28 122.827L80.8 140.207C76.29 140.757 72.77 144.607 72.77 149.337V171.227H80.8V179.367C80.8 180.577 81.79 181.457 82.89 181.457H95.98C97.19 181.457 98.07 180.467 98.07 179.367V171.227H130.08V179.367C130.08 180.577 131.07 181.457 132.17 181.457H145.26C146.47 181.457 147.35 180.467 147.35 179.367V171.227H155.38V149.337ZM93.34 124.917C93.67 124.037 94.55 123.487 95.43 123.487L133.05 124.037C133.93 124.037 134.7 124.587 135.14 125.357L140.42 139.877C133.38 138.227 124.14 137.237 114.02 137.237C103.9 137.237 95.1 138.227 88.17 139.767L93.23 124.807L93.34 124.917Z" fill="#005DAA"/>
<path d="M86.3 156.597C89.1553 156.597 91.47 154.282 91.47 151.427C91.47 148.571 89.1553 146.257 86.3 146.257C83.4447 146.257 81.13 148.571 81.13 151.427C81.13 154.282 83.4447 156.597 86.3 156.597Z" fill="#F8B954"/>
<path d="M141.85 156.597C144.705 156.597 147.02 154.282 147.02 151.427C147.02 148.571 144.705 146.257 141.85 146.257C138.995 146.257 136.68 148.571 136.68 151.427C136.68 154.282 138.995 156.597 141.85 156.597Z" fill="#F8B954"/>
<path d="M104.772 99.6083C107.852 99.4983 110.272 98.8383 111.372 98.5083C112.472 98.1783 111.592 98.1783 111.372 98.1783C110.272 97.8483 107.742 97.1883 104.772 97.0783C104.662 93.9983 104.002 91.5783 103.672 90.4783C103.342 89.3783 103.342 90.2583 103.342 90.4783C103.012 91.5783 102.352 94.1083 102.242 97.0783C99.1615 97.1883 96.7415 97.8483 95.6415 98.1783C94.5415 98.5083 95.4215 98.5083 95.6415 98.5083C96.7415 98.8383 99.2715 99.4983 102.242 99.6083C102.352 102.688 103.012 105.108 103.342 106.208C103.672 107.308 103.672 106.428 103.672 106.208C104.002 105.108 104.662 102.578 104.772 99.6083Z" fill="#005DAA"/>
<path d="M167.7 129.097C170.78 128.987 173.2 128.327 174.3 127.997C175.4 127.667 174.52 127.667 174.3 127.667C173.2 127.337 170.67 126.677 167.7 126.567C167.59 123.487 166.93 121.067 166.6 119.967C166.27 118.867 166.27 119.747 166.27 119.967C165.94 121.067 165.28 123.597 165.17 126.567C162.09 126.677 159.67 127.337 158.57 127.667C157.47 127.997 158.35 127.997 158.57 127.997C159.67 128.327 162.2 128.987 165.17 129.097C165.28 132.177 165.94 134.597 166.27 135.697C166.6 136.797 166.6 135.917 166.6 135.697C166.93 134.597 167.59 132.067 167.7 129.097Z" fill="#005DAA"/>
<path d="M56.93 126.897C58.69 126.897 60.12 126.457 60.67 126.237C61.22 126.017 60.67 126.017 60.67 126.017C60.01 125.797 58.58 125.467 56.93 125.357C56.93 123.597 56.49 122.167 56.27 121.617C56.05 121.067 56.05 121.617 56.05 121.617C55.83 122.277 55.5 123.707 55.39 125.357C53.63 125.357 52.2 125.797 51.65 126.017C51.1 126.237 51.65 126.237 51.65 126.237C52.31 126.457 53.74 126.787 55.39 126.897C55.39 128.657 55.83 130.087 56.05 130.637C56.27 131.187 56.27 130.637 56.27 130.637C56.49 129.977 56.82 128.547 56.93 126.897Z" fill="#005DAA"/>
<path d="M210.05 104.127C210.16 103.577 210.27 102.917 210.27 102.367C210.27 97.9668 206.64 94.3368 202.24 94.3368C197.84 94.3368 199.38 94.7768 198.17 95.4368C198.39 94.6668 198.5 93.8968 198.5 93.1268C198.5 87.7368 194.1 83.3368 188.71 83.3368C183.32 83.3368 178.92 87.7368 178.92 93.1268C178.59 93.1268 178.37 93.1268 178.04 93.1268C174.41 93.1268 171.33 95.5468 170.34 98.8468C167.04 99.0668 164.29 101.267 163.3 104.237H210.05V104.127Z" fill="#CEE9F7"/>
<path d="M61.8372 111.804C61.9686 111.138 62.1 110.339 62.1 109.673C62.1 104.347 57.7644 99.9526 52.5091 99.9526C47.2539 99.9526 49.0932 100.485 47.648 101.284C47.9108 100.352 48.0422 99.42 48.0422 98.4879C48.0422 91.9631 42.7869 86.6368 36.3492 86.6368C29.9115 86.6368 24.6562 91.9631 24.6562 98.4879C24.2621 98.4879 23.9993 98.4879 23.6051 98.4879C19.2695 98.4879 15.5909 101.417 14.4084 105.412C10.467 105.678 7.18244 108.342 6 111.937H61.8372V111.804Z" fill="#CEE9F7"/>
<path d="M155.27 80.9168H111.6C111.6 80.9168 112.15 66.7268 125.57 69.9168C125.57 69.9168 126.78 61.3368 134.92 61.3368C143.06 61.3368 144.93 69.5868 144.93 69.5868C144.93 69.5868 155.49 68.8168 155.27 80.8068V80.9168Z" fill="#DAEEF9"/>
<path d="M201.91 77.6168C209.2 77.6168 215.11 71.707 215.11 64.4168C215.11 57.1266 209.2 51.2168 201.91 51.2168C194.62 51.2168 188.71 57.1266 188.71 64.4168C188.71 71.707 194.62 77.6168 201.91 77.6168Z" fill="#FD8585"/>
<path d="M26.79 208.517C36.9962 208.517 45.27 200.243 45.27 190.037C45.27 179.831 36.9962 171.557 26.79 171.557C16.5838 171.557 8.31 179.831 8.31 190.037C8.31 200.243 16.5838 208.517 26.79 208.517Z" fill="#CD94FF"/>
<path d="M16.01 163.527C21.4776 163.527 25.91 159.094 25.91 153.627C25.91 148.159 21.4776 143.727 16.01 143.727C10.5424 143.727 6.10999 148.159 6.10999 153.627C6.10999 159.094 10.5424 163.527 16.01 163.527Z" fill="#5FBEA5"/>
<path d="M195.2 39.3368C198.845 39.3368 201.8 36.3819 201.8 32.7368C201.8 29.0918 198.845 26.1368 195.2 26.1368C191.555 26.1368 188.6 29.0918 188.6 32.7368C188.6 36.3819 191.555 39.3368 195.2 39.3368Z" fill="#5CB7E7"/>
<path d="M110.5 63.0967C113.416 63.0967 115.78 60.7328 115.78 57.8167C115.78 54.9007 113.416 52.5367 110.5 52.5367C107.584 52.5367 105.22 54.9007 105.22 57.8167C105.22 60.7328 107.584 63.0967 110.5 63.0967Z" fill="#FFF200"/>
<path d="M54.4 102.037C81.1306 102.037 102.8 80.3674 102.8 53.6368C102.8 26.9062 81.1306 5.23682 54.4 5.23682C27.6694 5.23682 6 26.9062 6 53.6368C6 80.3674 27.6694 102.037 54.4 102.037Z" fill="#FD8585"/>
<path d="M54.07 51.8768H36.91V59.4668C37.68 58.6968 38.67 58.0368 39.99 57.4868C41.31 56.9368 42.74 56.7168 44.28 56.7168C47.03 56.7168 49.34 57.3768 51.1 58.5868C52.86 59.7968 54.29 61.4468 55.06 63.4268C55.94 65.4068 56.27 67.4968 56.27 69.8068C56.27 74.0968 55.06 77.5068 52.64 80.0368C50.22 82.5668 46.81 83.7768 42.41 83.7768C38.01 83.7768 36.91 83.2268 34.82 82.2368C32.62 81.2468 30.97 79.8168 29.87 78.0568C28.66 76.2968 28.11 74.2068 28 71.8968H37.13C37.35 72.9968 37.9 73.9868 38.67 74.7568C39.55 75.5268 40.65 75.8568 42.08 75.8568C43.51 75.8568 45.05 75.3068 45.93 74.2068C46.81 73.1068 47.14 71.6768 47.14 69.8068C47.14 67.9368 46.7 66.6168 45.82 65.7368C44.94 64.7468 43.62 64.3068 41.97 64.3068C40.32 64.3068 39.66 64.6368 38.89 65.1868C38.12 65.7368 37.57 66.6168 37.35 67.6068H28.33V43.7368H53.96V51.9868L54.07 51.8768Z" fill="#223D74"/>
<path d="M62.2369 46.0633C63.1205 45.2748 64.1807 44.8368 65.506 44.8368C66.8313 44.8368 67.9799 45.2748 68.7751 46.0633C69.5703 46.8518 70.012 47.9908 70.012 49.4802C70.012 50.9695 69.5703 52.1085 68.7751 52.897C67.9799 53.6855 66.8313 54.1235 65.506 54.1235C64.1807 54.1235 63.0321 53.6855 62.2369 52.897C61.3534 52.1085 61 50.9695 61 49.4802C61 47.9908 61.4418 46.8518 62.2369 46.0633ZM64.1807 49.4802C64.1807 50.7067 64.6225 51.32 65.506 51.32C66.3896 51.32 66.2129 51.1448 66.4779 50.8819C66.743 50.6191 66.8313 50.0934 66.8313 49.4802C66.8313 48.2536 66.3896 47.6403 65.506 47.6403C64.6225 47.6403 64.1807 48.2536 64.1807 49.4802ZM79.5542 45.1872L69.0402 64.1987H64.5341L75.0482 45.1872H79.5542ZM75.2249 56.5766C76.0201 55.7881 77.1687 55.3501 78.494 55.3501C79.8193 55.3501 80.9679 55.7881 81.7631 56.5766C82.5582 57.3651 83 58.504 83 59.9934C83 61.4828 82.5582 62.6217 81.7631 63.4102C80.9679 64.1987 79.8193 64.6368 78.494 64.6368C77.1687 64.6368 76.0201 64.1987 75.2249 63.4102C74.4297 62.6217 73.988 61.4828 73.988 59.9934C73.988 58.504 74.4297 57.3651 75.2249 56.5766ZM77.5221 58.5917C77.257 58.9421 77.1687 59.3802 77.1687 59.9934C77.1687 61.22 77.6104 61.8333 78.494 61.8333C79.3775 61.8333 79.2008 61.658 79.4659 61.3952C79.7309 61.1324 79.8193 60.6067 79.8193 59.9934C79.8193 59.3802 79.7309 58.9421 79.4659 58.5917C79.2008 58.2412 78.9357 58.1536 78.494 58.1536C78.0522 58.1536 77.7871 58.3288 77.5221 58.5917Z" fill="#223D74"/>
<path d="M76.3819 26.0355V29.1254H81.3649V31.9977H76.3819V35.3487H82.0177V38.3298H72.661V23.0544H82.0177V26.0355H76.3819Z" fill="#223D74"/>
<path d="M71.1059 23.0544L65.6877 38.3298H61.0311L55.6129 23.0544H59.5732L63.3594 34.5871L67.1674 23.0544H71.1059Z" fill="#223D74"/>
<path d="M50.2316 35.6316H44.5305L43.6166 38.3298H39.7216L45.2486 23.0544H49.5571L55.084 38.3298H51.1455L50.2316 35.6316ZM49.2742 32.7593L47.3811 27.167L45.5097 32.7593H49.2742Z" fill="#223D74"/>
<path d="M32.8622 38.4821C31.7452 38.4821 30.7443 38.3008 29.8594 37.9381C28.9745 37.5754 28.2636 37.0387 27.7269 36.3279C27.2047 35.6171 26.929 34.7612 26.9 33.7602H30.8603C30.9183 34.326 31.1142 34.7612 31.4478 35.0658C31.7815 35.3559 32.2167 35.501 32.7534 35.501C33.3047 35.501 33.7399 35.3777 34.059 35.1311C34.3781 34.87 34.5377 34.5146 34.5377 34.0649C34.5377 33.6877 34.4072 33.3758 34.146 33.1292C33.8994 32.8826 33.5875 32.6795 33.2104 32.5199C32.8477 32.3603 32.3255 32.179 31.6437 31.9759C30.6572 31.6713 29.8521 31.3666 29.2283 31.062C28.6045 30.7574 28.0678 30.3077 27.6181 29.7129C27.1684 29.1181 26.9435 28.342 26.9435 27.3846C26.9435 25.9629 27.4585 24.8532 28.4885 24.0553C29.5185 23.243 30.8603 22.8368 32.5141 22.8368C34.1968 22.8368 35.5532 23.243 36.5831 24.0553C37.6131 24.8532 38.1644 25.9702 38.2369 27.4064H34.2113C34.1823 26.9131 34.001 26.5287 33.6673 26.2531C33.3337 25.9629 32.9057 25.8179 32.3835 25.8179C31.9338 25.8179 31.5711 25.9412 31.2955 26.1878C31.0199 26.4199 30.8821 26.7608 30.8821 27.2105C30.8821 27.7037 31.1142 28.0882 31.5784 28.3638C32.0426 28.6394 32.7679 28.9368 33.7544 29.2559C34.7408 29.5896 35.5387 29.9087 36.1479 30.2134C36.7717 30.518 37.3085 30.9605 37.7582 31.5407C38.2079 32.121 38.4327 32.8681 38.4327 33.782C38.4327 34.6524 38.2079 35.443 37.7582 36.1538C37.323 36.8646 36.6847 37.4304 35.8433 37.8511C35.0019 38.2717 34.0082 38.4821 32.8622 38.4821Z" fill="#223D74"/>
<path fill-rule="evenodd" clip-rule="evenodd" d="M87.9872 44.8368L88.6538 48.2842L86.015 46.021L84.5534 48.7052L87.6538 49.7842L84.5 50.9157L86.1154 53.7578L88.6538 51.3894L88.0385 54.8368H91.0385L90.3996 51.3894L92.938 53.7074L94.5 50.9157L91.3226 49.8368L94.5 48.7052L93.0385 46.021L90.3996 48.2842L91.0385 44.8368H87.9872Z" fill="#213B73"/>
</svg>
