<svg xmlns="http://www.w3.org/2000/svg" xmlns:xlink="http://www.w3.org/1999/xlink" width="110" height="110" viewBox="0 0 110 110">
    <defs>
        <path id="a" d="M28.264 22.78a1.33 1.33 0 0 1-1.324-1.324 1.33 1.33 0 0 1 1.324-1.324 1.33 1.33 0 0 1 1.325 1.324 1.33 1.33 0 0 1-1.325 1.325m-13.376-4.13l1.22-3.454c.183-.416.495-.65.91-.65h8.805c.416 0 .727.234.91.65l1.22 3.454c-3.507-.805-8.182-.96-13.065 0m-1.636 2.805a1.33 1.33 0 0 1 1.324-1.324 1.33 1.33 0 0 1 1.325 1.324c0 1.74-2.65 1.74-2.65 0m16.364-2.753l-1.688-4.363c-.494-.78-.961-1.17-1.792-1.273-3.143.026-6.286.026-9.429 0-.805.104-1.299.493-1.792 1.273l-1.688 4.363c-1.143.26-2.026 1.273-2.026 2.52v5.142h1.974v1.975c0 .337.26.597.597.597h3.221c.337 0 .597-.26.597-.597v-1.975c2.468-.31 5.014-.26 7.663 0v1.975c0 .337.26.597.597.597h3.22c.338 0 .598-.26.598-.597v-1.975h1.974v-5.143c0-1.246-.857-2.259-2.026-2.519"/>
    </defs>
    <g fill="none" fill-rule="evenodd">
        <path fill="#5AB7E8" d="M33.244 27.578c10.727-10.359 27.82-10.06 38.178.666 9.554 9.893 10.042 25.2 1.646 35.647L91 81.824 84.824 88 66.565 69.74c-10.61 6.812-24.894 5.432-33.987-3.984-10.359-10.727-10.06-27.82.666-38.178z"/>
        <ellipse cx="52" cy="47.5" fill="#FFF" rx="19" ry="18.5" transform="rotate(-44 52 47.5)"/>
        <use fill="#F55564" transform="translate(30 27)" xlink:href="#a"/>
        <path fill="#FFF200" d="M23.092 84.8c-.293-.284-1.003-4.844-1.418-4.844-.415 0-1.124 4.56-1.418 4.844-.293.285-4.99.966-4.99 1.369s4.697 1.09 4.99 1.375c.294.285 1.003 4.845 1.418 4.845.415 0 1.125-4.56 1.418-4.845.294-.284 4.996-.972 4.996-1.375s-4.702-1.084-4.996-1.369M88.803 25.025c-.24-.231-.82-3.936-1.16-3.936-.34 0-.92 3.705-1.16 3.936-.24.232-4.083.785-4.083 1.112 0 .328 3.842.886 4.082 1.118.24.23.82 3.936 1.16 3.936.34 0 .92-3.705 1.16-3.936.241-.232 4.089-.79 4.089-1.118 0-.327-3.848-.88-4.088-1.112M94.224 33.475c-.134-.124-.456-2.12-.645-2.12s-.51 1.996-.644 2.12c-.134.125-2.268.423-2.268.599s2.134.477 2.268.602c.133.124.455 2.12.644 2.12s.511-1.996.645-2.12c.133-.125 2.27-.426 2.27-.602s-2.137-.474-2.27-.599"/>
    </g>
</svg>
