<svg xmlns="http://www.w3.org/2000/svg" xmlns:xlink="http://www.w3.org/1999/xlink" width="600" height="185" viewBox="0 0 600 185">
    <defs>
        <path id="a" d="M0 0h600v185H0z"/>
    </defs>
    <g fill="none" fill-rule="evenodd">
        <mask id="b" fill="#fff">
            <use xlink:href="#a"/>
        </mask>
        <use fill="#5CB7E7" xlink:href="#a"/>
        <path fill="#178667" d="M-128.977-153.993c-.657.04-1.105.17-1.219.35-.304.48-1.544.598-2.796.279-1.251-.32-3.187-.194-4.301.28-1.113.473-2.617.771-3.333.663-1.231-.185-2.965 2.438-3.226 4.893-.066.615-2.298.965-4.983.768-3.577-.262-4.818.037-4.588 1.119.206.97-.935 1.493-3.37 1.537-2.034.037-4.044.414-4.48.839-.435.424-2.65.827-4.91.908l-4.122.14 4.014.699c2.208.38 3.757 1.053 3.441 1.503-.315.449.597 1.633 2.043 2.62 2.024 1.382 3 1.52 4.23.524 1.07-.865 2.299-.958 3.692-.244 5.351 2.742 11.143 2.626 16.882-.35 3.943-2.043 5.993-2.544 6.847-1.712 1.843 1.797-1.137 3.895-9.033 6.43-5.046 1.62-7.547 1.92-9.391 1.118-2.679-1.165-6.094-.437-6.094 1.293 0 1.77 8.17 5.85 10.36 5.172 2.688-.832 3.851 1.036 1.72 2.76-2.36 1.91-13.8.087-13.8-2.201 0-.917-.894-2.325-1.972-3.11-1.077-.786-1.656-2.18-1.29-3.11.366-.931.228-1.59-.323-1.468-1.18.263-4.88-.969-7.312-2.446-3.413-2.072-4.617-2.404-6.56-1.677-1.691.633-1.732.89-.286 1.782 1.677 1.034 1.368 1.227-2.617 1.537-.788.062-2.037.846-2.76 1.748-1.66 2.073 1.13 4.395 5.341 4.473 1.577.028 3.642.565 4.588 1.153 1.346.835.902 1.224-2.115 1.817-3.1.609-3.513.96-2.007 1.782 1.03.562 1.585 1.484 1.219 2.062-.371.585 1.302 1.048 3.8 1.048 3.018 0 5.162-.732 6.559-2.236 1.59-1.714 2.424-1.947 3.62-.979.858.694 3.115 2.08 5.018 3.075 1.904.995 3.561 2.32 3.656 2.935.291 1.888-3.572 1.934-5.484.07-.992-.967-1.284-1.747-.645-1.747s1.474.503 1.864 1.118c.39.615 1.567 1.119 2.616 1.119 1.473 0 1.295-.42-.752-1.818-2.19-1.495-3.164-1.564-5.664-.454-2.713 1.205-2.838 1.465-1.04 2.446 2.103 1.147 1.665 3.21-.68 3.18-.821-.01-.676-.467.358-1.118.947-.596 1.205-1.083.574-1.083-1.882 0-4.582 2.033-3.764 2.83.418.407 5.252.916 10.753 1.153 5.501.238 10.291.703 10.61 1.014.819.798 1.272.741 5.556-.769 3.947-1.392 5.354-3.328 1.756-2.411-2.846.726-8.576-1.59-7.634-3.075.422-.667 2.01-.9 3.548-.524 1.656.405 4.309-.08 6.488-1.189 2.022-1.028 4.396-2.202 5.305-2.62.909-.418 1.873-1.425 2.15-2.237.366-1.07-.265-1.274-2.33-.769-1.565.384-3.18.359-3.584-.034-1.302-1.27 1.745-3.705 4.624-3.705 1.537 0 2.478-.475 2.115-1.048-1.171-1.847 1.26-2.256 5.018-.873 3.014 1.108 3.828 1.067 4.66-.245.556-.877 5.065-3.522 10-5.836 4.936-2.314 8.372-4.199 7.635-4.228-.737-.03-2.285-.368-3.44-.734-1.561-.493-1.721-.38-.574.42 1.179.822.721 1.356-1.972 2.27-3.69 1.255-5.74.149-3.297-1.781.781-.618 3.756-1.865 6.595-2.796 6.854-2.248 11.47-4.349 11.47-5.206 0-.384-1.42-1.512-3.154-2.482-2.284-1.276-4.104-1.496-6.596-.803-3.793 1.055-6.83.46-5.806-1.153.975-1.54-4.857-2.453-11.614-1.817-3.271.307-8.292.107-11.183-.42-1.446-.263-2.854-.404-3.907-.42-.264-.003-.498-.012-.717 0zM-20.26-154c-3.07.032-5.265.612-4.737 1.46 1.322 2.123-2.61 2.455-6.352.535-2.794-1.434-4.344-1.624-6.28-.748-1.77.8-2.971.792-3.805-.036-1.596-1.584-4.81-.295-4.81 1.923 0 2.295 1.867 2.249 2.764-.071.606-1.566 1.09-1.465 3.482.82 1.878 1.793 2.426 3.103 1.686 3.988-.945 1.13-6.748 1.294-12.525.356-4.332-.703-7.958.121-7.357 1.674.894 2.313-1.312 3.24-2.979 1.246-1.715-2.05-3.555-2.243-3.158-.32.207 1.001-1.645 1.31-6.604 1.068-6.557-.32-14.189 1.875-12.453 3.597 1.147 1.138-2.109 4.372-3.768 3.74-.826-.315-1.797-.11-2.154.463-.356.572-1.295.798-2.081.498-1.88-.716-10.634 3.508-9.152 4.417.629.385 2.761.242 4.738-.32 4.732-1.348 5.54.182 2.332 4.487-1.774 2.38-3.556 3.454-5.742 3.454-1.739 0-3.48.538-3.876 1.175-.397.637-1.23.832-1.83.463-1.436-.88-9.08 1.638-9.08 2.992 0 1.058 1.391 1.308 9.654 1.531 2.477.068 4.724.747 4.989 1.532.53 1.573-.42 1.988-7.178 3.205-4.127.743-4.302.905-1.723 1.567 1.58.406 2.613 1.174 2.297 1.71-.857 1.453 3.68 2.733 6.316 1.78 1.264-.456 6.399-.91 11.413-1.032 5.014-.123 9.527-.486 10.013-.784.486-.298 1.603.89 2.512 2.636.91 1.745 2.764 4.15 4.092 5.342 1.328 1.192 2.404 2.78 2.404 3.525 0 .746.988 2.234 2.19 3.313 1.52 1.365 2.02 2.98 1.65 5.306-.61 3.845 1.32 4.595 2.297.89.527-2 .953-2.21 2.297-1.104 3.92 3.23 2.92 7.212-2.117 8.441-1.576.384-1.183.586 1.256.677 1.955.072 4.404 1.092 5.455 2.243 1.787 1.96 1.79 2.238-.36 4.167-2.162 1.943-2.206 2.117-.322 3.49 1.833 1.337 1.747 1.574-1.149 2.672-1.737.658-3.158 1.774-3.158 2.493 0 .951.47.93 1.687-.072 2.668-2.197 4.554-.202 2.225 2.351-1.086 1.191-1.505 2.188-.933 2.208.572.02.102.743-1.04 1.603-1.34 1.007-1.622 1.826-.826 2.315.68.417.878 1.36.43 2.1-.52.862-.173.805 1.005-.142 2.085-1.676 3.544-.33 2.118 1.96-.595.955.226 3.24 2.26 6.232 4.457 6.552 7.614 9.163 11.234 9.224 1.702.029 3.15.677 3.23 1.46.079.784.208 1.717.287 2.066.305 1.347 7.058-3.51 7.178-5.164.07-.962.035-2.852-.072-4.203-.107-1.35.336-2.795 1.005-3.205.669-.41 1.22-1.686 1.22-2.85 0-2.452 10.097-11.702 11.7-10.72.592.364 2.567.033 4.378-.712 3.25-1.335 4.843-3.495 5.06-6.838.062-.94.754-1.58 1.544-1.424.79.157 2.456-.728 3.696-1.959 1.799-1.785 3.734-2.199 9.51-2.101 4.454.075 8.557-.571 10.66-1.638 1.88-.955 5.218-2.14 7.429-2.636l4.02-.89-4.02-.89c-2.211-.482-5.108-.577-6.46-.25-2.903.702-4.833-1.593-2.19-2.6 1-.38 1.677-1.538 1.508-2.564-.214-1.294.692-1.952 2.943-2.208 2.49-.283 3.362.18 3.84 1.994.761 2.89 3.804 3.144 3.804.32 0-2.655-6.235-6.307-9.187-5.377-3.13.986-5.064-.337-3.41-2.315.981-1.173.696-1.798-1.148-2.778-3.28-1.742-1.706-3.749 2.26-2.885 2.62.572 3.19.335 3.051-1.317-.243-2.892 3.733-2.658 7.68.463 1.786 1.411 4.093 2.564 5.132 2.564 1.465 0 1.312-.395-.681-1.78-3.264-2.27-2.294-3.918 2.332-3.918 3.41 0 3.477-.088 1.364-1.674-1.226-.92-1.708-1.758-1.077-1.852.632-.094-.366-.495-2.225-.89-4.396-.937-4.435-2.779-.071-3.704l3.445-.713-3.66-.142c-2.016-.074-3.973-.616-4.343-1.211-1.126-1.808 3.547-3.527 7.5-2.742 2.773.55 3.519.398 2.872-.641-.478-.767-1.136-1.117-1.472-.784-1.122 1.114-5.103-1.773-4.522-3.276.315-.816.003-2.027-.682-2.707-.895-.889-.367-1.557 1.83-2.386 1.683-.635 3.051-1.925 3.051-2.85 0-.924.904-2.222 2.01-2.92 1.7-1.073 1.558-1.202-.97-.676-3.578.743-4.95-.25-3.193-2.351.713-.853 3.511-1.531 6.316-1.531 3.36 0 4.93-.455 4.737-1.39-.157-.768.895-1.598 2.333-1.816 1.438-.217 3.95-1.057 5.563-1.887L55-139.753l-4.594-.784c-2.53-.424-5.522-.29-6.675.32-2.914 1.543-7.564 2.032-9.295.962-.801-.494-2.992-.151-4.881.784-3.357 1.662-5.481.838-3.984-1.567.498-.8-2.022-1.088-7.68-.82-6.15.293-10.366 1.292-15.576 3.634-4.1 1.842-7.956 2.885-9.08 2.457-2.831-1.078-1.071-2.336 8.937-6.304 5.684-2.253 10.851-3.49 14.535-3.49 3.138 0 7.42-.78 9.546-1.745l3.876-1.745-6.496.676c-6.797.715-9.504-.62-5.886-2.884 2.295-1.437-8.64-.869-20.85 1.068-3.755.595-7.296.774-7.86.427-1.71-1.048 1.064-2.909 5.706-3.846 3.988-.805 3.783-.887-2.512-.926-3.79-.023-7.925-.148-9.188-.285a28.389 28.389 0 0 0-3.302-.178zm-31.241 3.001c-.989.046-1.865.998-1.346 1.976.297.558.92 1.022 1.375 1.022 1.31 0 2.011-1.972.965-2.725a1.544 1.544 0 0 0-.994-.273zm-5.641.01a1.1 1.1 0 0 0-.395.141 1.002 1.002 0 1 0 1.382.31.966.966 0 0 0-.987-.45zm97.64 6.99c-.988.046-1.864.998-1.345 1.976.296.558.92 1.022 1.375 1.022 1.31 0 2.011-1.972.965-2.725a1.544 1.544 0 0 0-.994-.273zm215.158.998c-.637.019-.846.942-.557 2.648.104.617-.58.793-1.524.402-2.395-.992-3.41.454-1.784 2.568 1.278 1.663 3.653 1.893 3.085.32.163-.084.297-.223.297-.44 0-.078-.072-.169-.186-.282.185-.575.592-1.358 1.152-2.086 1.038-1.35 1.135-2.29.298-2.849-.304-.202-.568-.287-.78-.28zm11.843 2.002c-.989.046-1.865.998-1.346 1.976.296.558.92 1.022 1.375 1.022 1.31 0 2.011-1.972.965-2.725a1.544 1.544 0 0 0-.994-.273zM-78.733-141c1.607.01 3.25.984 2.579 1.967-.921 1.348-3.779 1.383-4.678.066-.373-.546-.1-1.314.589-1.7.436-.244.975-.336 1.51-.333zm312.592.012c-.129.02-.277.069-.395.141a1.002 1.002 0 1 0 1.382.31.966.966 0 0 0-.987-.45zm110.64-.01c-.988.046-1.864.998-1.345 1.976.296.558.92 1.022 1.375 1.022 1.31 0 2.011-1.972.965-2.725a1.545 1.545 0 0 0-.994-.273zm-97.633 2.004c-.916.045-2.04.325-3.11.83-.787.372-1.772.262-2.198-.258-.426-.52-1.302-.695-1.934-.4-.632.294-.808.925-.417 1.402.39.477 1.169.64 1.744.372.575-.269 1.362-.095 1.744.372.383.467 1.368.753 2.2.658 2.502-.287 4.653-1.554 3.98-2.375-.355-.435-1.094-.646-2.01-.601zm11.993.006a1.1 1.1 0 0 0-.395.141c-.47.29-.6.912-.31 1.383a1.002 1.002 0 0 0 1.692-1.072.966.966 0 0 0-.987-.452zm-389.606-.001c-.82.131-2.52.977-6.05 2.745-5.566 2.789-3.605 3.024 3.772.447 1.672-.585 3.025-1.578 3.025-2.197 0-.59-.046-.951-.448-.995a1.063 1.063 0 0 0-.299 0zm27.84.99c-.618.005-1.315.402-1.741 1.022-.726 1.057-.343 1.243 1.282.623 1.322-.503 1.74-1.157 1.008-1.512a1.176 1.176 0 0 0-.55-.134zm460.717.005c-.89.064-1.908.686-3.762 1.91-3.53 2.332-3.708 2.724-1.986 4.134 2.143 1.754 9.592.922 10.834-1.209.425-.73-.486-2.279-2.056-3.431-1.354-.995-2.141-1.468-3.03-1.404zm-85.908 1.001c-.512.025-1.05.131-1.478.314-.856.365-1.977.672-2.49.68-.514.006-.934.282-.934.626v1.203c0 .322.632.176 1.4-.34.769-.516 2.122-.748 2.996-.523 1.967.507 3.61-1.08 1.868-1.803-.348-.144-.85-.182-1.362-.157zM224.06-136c-2.002-.015-5.1 1.174-5.994 2.653-.608 1.004 3.083 3.959 5.093 4.068.406.022 1.118.399 1.559.849 1.099 1.122 2.884-.156 2.079-1.486-.357-.59-1.056-.813-1.56-.495-.503.318-1.194-.147-1.524-1.026-.33-.879.2-1.88 1.178-2.264 1.191-.466 1.439-1.078.693-1.839-.307-.314-.857-.455-1.524-.46zm7.633-.998c-.591-.028-1.219.312-2.152.976-1.929 1.37-1.992 1.74-.502 3.485.923 1.081 1.556 2.283 1.399 2.65-.158.365.174.661.753.661.578 0 1.444.359 1.9.802 1.138 1.106 2.985-.154 2.152-1.464-.37-.58-1.106-.78-1.65-.453-.544.327-1.261.136-1.613-.418-.353-.554.487-1.28 1.9-1.638 3.488-.887 3.73-.896 3.73.278 0 1.966 1.7 2.643 3.334 1.325 1.126-.908 1.857-.941 2.367-.14.518.816 1.45.78 3.084-.07 1.66-.863 2.011-1.564 1.147-2.404-.864-.84-1.712-.794-2.869.14-1.294 1.043-1.785.914-2.366-.559-.404-1.023-1.07-1.539-1.47-1.15-.4.39-1.361.185-2.152-.453-1.002-.808-1.673-.761-2.223.105-.55.865-1.385.687-2.761-.523-.849-.747-1.417-1.123-2.008-1.15zm30.585-.002c-1.756.038-5.89 2.97-5.203 4.014.363.552 1.092.986 1.61.986 1.487 0 5.012-4.053 4.192-4.824-.134-.125-.348-.181-.599-.176zm-12.196 1.01a1.318 1.318 0 0 0-.533.203c-.635.42-.732 1.434-.229 2.28.504.846 1.01 1.986 1.104 2.523.094.538.221 1.363.305 1.832.084.47 1.227-.184 2.55-1.465 2.27-2.196 2.303-5.444.039-3.948-.578.381-1.4.088-1.828-.652-.32-.554-.876-.842-1.408-.773zM154.756-131c-1.17-.02-1.304.339-1.304 1.06 0 .801-.854 2.148-1.904 3.001-1.087.884-1.548.972-1.093.212.997-1.664-.827-2.846-5.181-3.354-2.914-.34-3.16-.14-1.903 1.377 1.193 1.44 1.078 2.086-.53 3.672-1.77 1.747-2.057 1.737-3.277.106-2.126-2.844-4.516-3.073-6.486-.636-1.266 1.567-2.488 1.993-3.983 1.413-2.107-.818-2.11-.855.035-2.437 2.407-1.774 1.586-1.984-3.736-.918-1.939.389-3.525 1.185-3.525 1.766 0 .58.508.737 1.128.353 2.33-1.443 3.562.748 1.621 2.895-1.054 1.167-2.48 1.792-3.172 1.377-.692-.415-.564.12.282 1.165 1.674 2.068 4.047 1.464 2.785-.706-.427-.734.344-.372 1.692.812 2.232 1.962 2.607 2 4.406.389 2.581-2.313 6.112-2.905 6.732-1.13.27.773-.795 1.897-2.397 2.507-3.311 1.26-3.916 2.546-.951 2.047 3.094-.52 2.33 2.858-.846 3.743-1.551.432-1.997.856-.987.918 1.01.062 2.47.869 3.242 1.8 2.039 2.461 2.953 2.127 4.547-1.73.782-1.889 2.368-4.695 3.56-6.213 2.005-2.554 2.39-2.614 4.76-1.06 1.407.925 2.954 1.28 3.453.812.5-.468.31.32-.423 1.73-1.257 2.421-1.138 2.55 2.186 2.295 1.936-.147 3.723-.588 3.948-.953.41-.665-5.019-3.696-8.848-4.943-1.125-.366-1.752-1.104-1.41-1.66.343-.555-.525-1.298-1.903-1.659-1.948-.51-2.18-.959-1.128-2.012 1.052-1.054 2.725-1.045 7.543.035 5.876 1.317 6.414 1.239 10.257-1.377l4.054-2.754-3.736-.742c-4.124-.795-6.339-1.179-7.508-1.2zm25.511 0c-.535-.003-1.074.09-1.51.333-.69.386-.962 1.154-.59 1.7.9 1.317 3.758 1.282 4.679-.066.671-.983-.972-1.958-2.579-1.967zm12.592.012c-.129.02-.277.069-.395.141a1.002 1.002 0 1 0 1.382.31.966.966 0 0 0-.987-.45zm63 0a1.1 1.1 0 0 0-.395.141 1.002 1.002 0 1 0 1.382.31.966.966 0 0 0-.987-.45zm93.55-.012c-.612 0-1.32.055-2.015.185-1.674.314-1.804.555-.586 1.113 2.06.944 4.197.936 5.02-.026.639-.746-.58-1.272-2.418-1.272zm9.886.011c-1.697.096-3.825.798-6.281 2.109L349-126.735l6.727 1.516c3.692.819 8.036 2.2 9.663 3.07 3.706 1.983 4.182 1.642 4.535-2.959.416-5.437-.913-6.714-3.494-3.403l-2.193 2.811-.743-2.663c-.519-1.864-2.018-2.749-4.2-2.626zm-550.72 1.014a.783.783 0 0 0-.217.092c-.546.337-.462 1.154.216 1.97.631.757 1.56 1.112 2.068.8.546-.337.462-1.124-.216-1.94-.552-.663-1.325-1.052-1.852-.922zm232.284 2.987a1.1 1.1 0 0 0-.395.141 1.002 1.002 0 1 0 1.382.31.966.966 0 0 0-.987-.45zm-246.56-.003c-1.61.06-1.902.697.15 1.81 1.084.588 1.63 1.584 1.232 2.207-.433.68.382.873 2.053.47 2.005-.483 3.976.268 6.982 2.714 5.027 4.091 6.96 3.603 3.621-.94-1.426-1.942-4.686-4.024-7.952-5.103-2.078-.686-3.956-1.08-5.301-1.158a8.363 8.363 0 0 0-.784 0zm583.894.991c-1.609-.02-3 1.086-4.565 3.386-1.45 2.128-2.628 4.14-2.628 4.489 0 .348 1.774-.053 3.941-.92 2.168-.867 4.938-1.628 6.142-1.656 3.249-.077 3.846-1.38 1.478-3.238-1.724-1.353-3.117-2.045-4.368-2.06zM169.5-124.998c-.989.046-1.865.998-1.346 1.976.297.558.92 1.022 1.375 1.022 1.31 0 2.011-1.972.965-2.725a1.544 1.544 0 0 0-.994-.273zm-4.641 1.01c-.129.02-.277.069-.395.141-.47.29-.6.912-.31 1.383a1.002 1.002 0 0 0 1.692-1.072.966.966 0 0 0-.987-.452zm188 3c-.129.02-.277.069-.395.141a1.002 1.002 0 1 0 1.382.31.966.966 0 0 0-.987-.45zm36 0c-.129.02-.277.069-.395.141a1.002 1.002 0 1 0 1.382.31.966.966 0 0 0-.987-.45zm-610.047.02c-.402.155-2.232.282-4.076.282-1.844 0-3.085.436-2.775.955.31.518 2.194.782 4.18.6 1.985-.18 2.61-.07 1.404.248-3.814 1.004-7.07 3.034-6.474 4.03.827 1.381 1.41 1.212 5.583-1.45 2.059-1.312 3.552-2.967 3.323-3.676-.23-.709-.763-1.145-1.165-.99zm35.346.969c-.391.018-.047.419.928 1.355 2.014 1.934 3.52 2.158 4.678.693.44-.555.25-1.009-.443-1.009-.694 0-2.33-.312-3.63-.693-.78-.228-1.298-.357-1.533-.346zm226.701 1.011c-.129.02-.277.069-.395.141-.47.29-.6.912-.31 1.383a1.002 1.002 0 0 0 1.692-1.072.966.966 0 0 0-.987-.452zm308 0c-.129.02-.277.069-.395.141a1.002 1.002 0 1 0 1.382.31.966.966 0 0 0-.987-.45zM-233.475-117c-.291 0-.525.45-.525 1s.576 1 1.275 1c.698 0 .932-.45.525-1-.408-.55-.984-1-1.275-1zm25.334.012c-.129.02-.277.069-.395.141a1.002 1.002 0 1 0 1.382.31.966.966 0 0 0-.987-.45zm552 0c-.129.02-.277.069-.395.141-.47.29-.6.912-.31 1.383a1.002 1.002 0 0 0 1.692-1.072.966.966 0 0 0-.987-.452zm37.122-.01c-1.509.033-2.64.77-4.172 2.477-1.89 2.108-2.289 3.322-1.438 4.346 1.647 1.982.213 3.037-3.021 2.226-1.551-.389-4.529.186-6.94 1.329-3.077 1.458-4.732 1.652-6.115.79-1.336-.834-3.718-.702-8.091.43-3.414.885-7.85 1.617-9.854 1.617-3.66 0-10.09 2.182-10.933 3.699-.248.447.522 1.527 1.726 2.406 2.124 1.55 1.617 4.958-.54 3.627-.582-.36-4.438-.817-8.558-1.005-7.195-.33-7.48-.226-7.48 2.37 0 1.54.706 2.693 1.618 2.693 2.826 0 6.345 3.91 6.689 7.434.27 2.769-.116 3.45-1.978 3.447-1.766-.003-2.24-.708-2.086-3.016.17-2.57-.547-3.322-4.927-4.992-3.71-1.415-5.542-1.609-6.617-.718-1.064.882-1.872.86-2.841-.108-.909-.907-1.367-.945-1.367-.108 0 .686 1.371 2.117 3.021 3.197 4.288 2.805 1.88 4.844-2.841 2.406-2.272-1.174-3.951-3.153-4.64-5.53-.591-2.047-1.129-2.897-1.186-1.868-.057 1.028-.892 2.529-1.87 3.34-1.036.858-1.459 2.24-1.007 3.303.669 1.575 1.132 3.893 1.51 7.29.053.475 1.501.863 3.201.863 3.536 0 8.415 4.038 8.415 6.966 0 1.087.851 2.325 1.907 2.73 1.35.518 1.578 1.081.719 1.939-1.693 1.69-6.078-.772-6.078-3.412 0-2.388-2.15-4.776-4.28-4.776-.828 0-2.298 1.986-3.272 4.417-.975 2.432-3.338 5.591-5.25 7.003-3.344 2.468-3.624 2.493-7.445.682-2.186-1.036-3.677-2.385-3.309-2.98.888-1.434 4.818-1.383 5.718.072 3.597 5.81 7.608-14.283 4.1-20.542-.548-.979-.427-2.887.288-4.453 1.435-3.146-.226-4.818-4.747-4.848-1.904-.013-2.967.917-3.812 3.34-.648 1.854-2.424 4.204-3.956 5.207-2.456 1.606-2.63 2.099-1.367 4.345.789 1.402 2.345 3.225 3.453 4.058 1.107.834 2.014 2.3 2.014 3.232 0 2.81-3.41 3.202-6.114.718-1.48-1.359-5.009-2.657-8.523-3.124-5.6-.744-6.195-.547-8.74 2.406-1.895 2.201-3.332 2.913-4.747 2.37-1.75-.67-1.815-1.05-.467-2.693 1.245-1.517.867-1.469-1.834.287-1.87 1.216-5.179 2.815-7.337 3.556-3.51 1.205-3.986 1.118-4.495-.826-.525-2.005-.83-2.025-3.848-.467-1.799.929-4.382 1.688-5.754 1.688-1.372 0-4.275 1.551-6.438 3.447-4.393 3.852-6.357 4.243-8.45 1.724-1.174-1.411-.975-1.863 1.078-2.622 2.331-.86 2.242-1.052-1.582-2.873-4.46-2.123-4.734-1.795-2.841 3.628 1.538 4.406-.284 7.672-3.345 5.96-2.023-1.13-8.781 2.794-7.732 4.49.317.512-.146 1.519-1.043 2.262-1.266 1.05-2.435.95-5.179-.466-3.824-1.975-4.777-1.226-1.51 1.185 1.506 1.11 1.696 1.846.72 2.837-2.018 2.044-8.286-1.687-9.243-5.495-.43-1.71-1.845-3.987-3.165-5.063-2.137-1.743-2.204-2.032-.504-2.694 1.051-.409 3.506.084 5.43 1.077 6.134 3.168 16.256 1.466 16.256-2.729 0-1.84-13.284-9.265-16.579-9.265-.86 0-2.188-.801-2.985-1.76-1.097-1.32-2.775-1.552-6.905-1.005-6.057.802-8.923-1.093-4.387-2.91 2.632-1.053 2.63-1.076-.432-1.148-1.703-.04-3.42-.59-3.812-1.221-.391-.632-1.237-1.15-1.87-1.15s-.763.647-.288 1.437c.686 1.14.522 1.154-.863.036-1.232-.996-2.12-1.043-2.985-.18-.864.863-1.462.793-2.085-.215-.607-.98-.424-1.141.611-.503.998.616 1.228.486.683-.395-.563-.91-1.49-.976-2.913-.216-1.144.612-2.484.74-2.985.288-.5-.452-.539-.213-.108.538 1.21 2.107-2.73 3.758-6.005 2.514-2.586-.981-2.7-.907-1.26.97.865 1.126 1.13 1.654.576 1.185-.554-.469-1.704-.273-2.553.431-.85.704-1.546.902-1.546.43 0-.47-.752-.244-1.655.504-.902.748-2.326 1.262-3.165 1.149-3.538-.479-4.699.044-3.452 1.544 1.586 1.908-.17 4.835-2.913 4.848-1.291.006-2.049.86-2.05 2.299 0 1.264-.332 2.04-.755 1.723-.423-.316-2.038.584-3.56 2.011-1.523 1.428-3.176 2.204-3.705 1.724-.528-.48-.658.055-.251 1.185.431 1.199.18 2.233-.648 2.478-5.627 1.669-5.978 1.919-4.315 2.945.905.559 1.71 2.374 1.798 4.022.183 3.416-2.751 5.575-5.323 3.95-2.244-1.417-3.441-1.341-3.092.18.158.69-.696 1.854-1.907 2.586-5.738 3.467-6.777 5.569-4.89 9.947.408.948.622 3.275.467 5.172-.24 2.948.164 3.509 2.733 3.806 1.932.224 4.26-.736 6.546-2.657l3.56-2.98 1.618 3.231c.897 1.768 2.292 5.265 3.093 7.793 2.062 6.511 2.216 6.654 5.25 4.669 1.502-.983 3.853-1.796 5.215-1.796 1.952 0 2.334-.497 1.834-2.406-.863-3.298 1.043-7.937 3.273-7.937 1.002 0 1.515-.489 1.15-1.077-.364-.588-.079-1.405.612-1.831.824-.51.43-1.66-1.15-3.34-2.01-2.137-2.243-3.31-1.475-7.003.86-4.138 2.834-6.137 9.17-9.265.792-.391 1.439-1.784 1.439-3.089 0-5.346 7.16-8.696 10.357-4.848 1.608 1.935 1.247 2.578-5.79 9.912-3.553 3.703-4.021 4.83-3.632 8.906.598 6.262 2.05 7.215 7.696 5.135 5.485-2.02 11.716-2.136 13.99-.251 3.283 2.721.343 3.653-13.702 4.345-2.174.107-2.821 4.071-.863 5.28 1.57.969 1.45 4.848-.18 5.853-.73.45-2.008-.118-2.841-1.257-2.212-3.02-5.376-.214-4.46 3.95.538 2.444-.034 3.55-2.913 5.675-2.854 2.107-3.87 2.334-5.214 1.22-1.342-1.111-2.835-.773-7.517 1.652-5.571 2.887-5.887 2.925-6.437.826-.498-1.903-1.02-2.063-3.956-1.041-2.771.965-3.814.827-5.682-.862-1.345-1.215-2.002-2.823-1.582-3.878 1.692-4.251 1.571-5.961-.396-5.567-1.99.399-2.275 2.48-1.295 9.517.447 3.205.21 3.448-3.272 3.555-2.061.063-4.707.967-5.862 2.011-1.156 1.045-2.418 1.572-2.841 1.15-.424-.423-.792.229-.792 1.472 0 2.806-2.102 5.028-4.783 5.028-1.117 0-2.598 1.04-3.272 2.298-1.386 2.585-7.599 6.169-9.099 5.243-.542-.335-1.282.442-1.618 1.724-.487 1.858-1.192 2.174-3.56 1.58-3.852-.965-4.002 1.458-.18 2.909 2.98 1.131 6.062 6.815 6.221 11.492.13 3.802-2.944 7.031-6.006 6.32-3.767-.874-13.73-1.487-15.176-.934-.82.315-1.091 2.54-.755 6.034.292 3.037-.036 6.553-.72 7.829-1.756 3.276.734 8.355 4.1 8.367 1.393.005 3.024.89 3.633 1.975.914 1.632 1.549 1.73 3.776.647 1.48-.72 3.992-1.566 5.574-1.904 4.283-.914 7.215-3.47 7.552-6.572.165-1.516.343-3.13.396-3.59.053-.462 2.18-1.907 4.71-3.197 3.405-1.734 4.604-3.06 4.604-5.064 0-3.648 2.76-5.687 6.617-4.92 1.857.37 4.083-.045 5.395-1.005 3.315-2.426 6.06-2.026 8.38 1.293 3.122 4.469 9.364 10.125 11.58 10.45 2.995.44 6.161 4.937 5.322 7.578-.512 1.609-.297 2.041.683 1.436.824-.508 1.132-2.142.755-4.022-.752-3.758.159-5.08 2.302-3.304 1.036.859 1.546.883 1.546.072 0-.665-2.378-2.393-5.286-3.843-3.366-1.679-6.076-4.1-7.48-6.68-1.213-2.228-2.859-4.938-3.633-6.033-1.145-1.62-1.05-2.363.54-3.95 1.819-1.817 2.009-1.826 2.697-.036.406 1.057 1.157 1.672 1.654 1.365.498-.307 1.736.706 2.733 2.226.998 1.52 4.104 4.43 6.941 6.465 3.489 2.501 5.444 4.827 5.97 7.218.907 4.123 6.121 11.097 8.308 11.097.828 0 1.188-.543.79-1.185-.397-.643-1.29-.82-1.977-.395-.764.47-.919.234-.396-.611.652-1.053 1.254-1.053 2.482-.036 1.848 1.532 1.111 3.376-1.33 3.376-.913 0-1.655.776-1.655 1.724 0 2.18.558 2.15 4.064-.144 3.483-2.28 3.562-3.515.36-6.105-2.27-1.835-2.14-5.54.143-4.13.523.323 1.26-.179 1.618-1.113.464-1.207 1.91-1.561 5.071-1.257 3.472.334 4.76-.068 5.862-1.832.933-1.49 1.064-2.736.324-3.627-1.643-1.977 3.642-12.388 7.876-15.514 2.823-2.084 3.902-2.32 5.826-1.293 1.746.933 2.078 1.657 1.187 2.73-.898 1.08-.532 1.853 1.51 2.945 3.529 1.885 6.3.455 3.345-1.724-1.363-1.005-1.688-1.886-.935-2.586 1.647-1.531 8.73-3.759 9.817-3.088 1.23.759.762 3.374-.97 5.458-1.176 1.414-.456 2.436 4.315 6.07 6.634 5.052 7.696 7.001 5.287 9.66-2.196 2.422-8.89 2.276-14.673-.324-5.162-2.32-7.47-2.377-11.257-.215-1.582.903-3.966 1.666-5.322 1.688-1.357.022-2.79.854-3.165 1.831-.376.978-1.322 1.685-2.122 1.58-3.4-.444-4.058.216-3.704 3.807.202 2.054.456 3.864.575 4.022.12.158.28.75.36 1.33.168 1.232 1.741 2.945 2.841 3.088.422.054 1.69.502 2.841 1.005 1.185.518 2.612.409 3.273-.251.789-.788 2.418-.777 5.07.036 2.832.867 4.757.817 6.87-.144 4.16-1.893 4.461-.107 1.762 10.163-2.706 10.295-5.44 13.296-9.962 10.953-2.152-1.114-3.737-1.192-6.042-.323-2.529.953-4.785.582-11.724-1.94-12.698-4.614-12.604-4.632-16.075 2.802-1.439 3.08-4.361 2.527-11.688-2.227-3.958-2.568-8.103-4.668-9.243-4.668-1.14 0-3.143-1.056-4.423-2.335-1.839-1.835-2.067-2.785-1.115-4.56 1.46-2.723.394-7.658-1.834-8.511-.89-.341-4.51-.08-8.056.574-3.547.655-7.166.916-8.056.575-.89-.341-5.965.923-11.292 2.8-10.215 3.601-13.9 4.15-15.069 2.263C72.1 65.477 71 66.171 69.65 69.744c-.715 1.893-2.904 4.35-4.855 5.458-3.237 1.84-4.411 4.683-3.632 8.799.471 2.489-2.814 7.819-5.754 9.337-1.757.907-4.79 4.46-6.761 7.9-1.972 3.442-4.175 6.442-4.891 6.68-2.003.667-2.513 4.035-2.23 14.868.174 6.675-.308 11.303-1.438 14.005-1.558 3.723-1.498 4.157.54 5.998 1.212 1.096 2.193 2.533 2.193 3.16 0 .627 1.853 3.368 4.1 6.105 2.246 2.737 3.929 5.766 3.74 6.715-.55 2.762 3.61 8.012 9.062 11.456 4.725 2.985 5.387 3.118 10.358 1.868 2.916-.733 6.654-1.04 8.307-.682 1.72.37 5.704-.328 9.315-1.652 3.472-1.274 7.486-2.335 8.919-2.335 2.54 0 6.47 3.005 7.336 5.603.3.897 1.567.976 4.1.25 5.396-1.545 7.202.989 6.473 9.087-1.02 11.337-.672 13.906 2.374 17.094 2.673 2.799 5.237 7.803 4.89 9.516-.082.408.708 1.701 1.763 2.873 1.055 1.173 1.94 3.412 1.942 4.992.002 1.58.35 4.298.791 6.033.512 2.019.139 4.552-1.043 7.04-1.016 2.138-2.433 6.46-3.165 9.624-1.175 5.086-1.062 6.337 1.007 10.773 2.71 5.812 3.615 8.997 4.424 15.37 1.02 8.032 2.863 13.55 7.48 22.445 4.927 9.491 5.344 11.215 2.841 12.175-2.75 1.054 3.854 6.498 6.797 5.602 1.29-.393 5.834-1.131 10.106-1.652 8.387-1.023 11.843-2.724 15.752-7.757 5.95-7.664 8.441-12.592 8.739-17.31.261-4.149.931-5.365 4.171-7.577 3.496-2.386 3.819-3.097 3.525-7.577-.18-2.72-.829-5.901-1.439-7.04-.872-1.626-.324-2.835 2.482-5.637 1.963-1.961 5.056-4.307 6.868-5.244 2.873-1.483 5.749-5.006 6.33-7.72.102-.475.299-1.25.432-1.724.817-2.912-.396-13.746-1.763-15.694-.897-1.28-1.654-3.805-1.654-5.602 0-1.797-.446-4.143-1.007-5.207-2.016-3.823 7.249-19.418 14.817-24.923 2.215-1.612 5.512-4.863 7.3-7.219 4.319-5.69 11.144-19.758 11.58-23.845.2-1.865 1.272-3.658 2.518-4.202 2.657-1.16.081-.767-11.04 1.724-7.072 1.583-7.642 1.556-10.646-.575-1.748-1.24-2.923-2.692-2.59-3.232.335-.54.058-1.31-.61-1.724-.67-.412-2.486-2.818-4.064-5.315-1.579-2.496-3.899-5.544-5.143-6.787-1.244-1.243-2.266-3.024-2.266-3.95 0-.926-1.036-2.233-2.301-2.91-1.805-.964-2.302-2.405-2.302-6.679 0-2.997-.691-6.474-1.546-7.72-.855-1.248-1.875-3.556-2.266-5.136s-2.548-5.64-4.783-9.014c-2.236-3.374-4.064-6.83-4.064-7.685 0-2.763 2.297-3.065 3.273-.431.892 2.408 1.006 2.42 1.798.359.79-2.056.967-2.01 3.093.682 2.844 3.604 5.646 9.958 5.646 12.785 0 1.187.763 2.155 1.69 2.155 2.183 0 4.064 3.581 4.064 7.72 0 3.452 1.911 6.886 6.725 12.103 1.925 2.086 3.01 4.641 3.129 7.47.397 9.513 2.34 12.13 7.156 9.588 1.1-.58 5.862-2.946 10.61-5.243 4.747-2.297 10.28-5.116 12.299-6.249 4.209-2.36 12.394-9.28 11.04-9.337-.496-.02.258-.99 1.655-2.155 1.397-1.164 2.225-2.446 1.834-2.837-.391-.39.186-1.72 1.295-2.944 1.947-2.15 1.865-2.318-2.662-5.172-2.732-1.722-5-4.181-5.43-5.89l-.755-2.908-1.727 2.478c-1.945 2.773-8.986 6.11-10.68 5.063-.606-.373-1.115-1.357-1.115-2.19 0-.834-.777-2.158-1.727-2.945-.95-.787-1.714-2.275-1.726-3.304-.011-1.029-1.605-4.174-3.524-7.003-3.113-4.588-3.294-5.303-1.655-6.5 2.622-1.914 6.158-.638 7.984 2.873 2.709 5.207 8.291 8.515 12.91 7.65 3.384-.634 4.14-.404 4.64 1.508.766 2.924 4.528 3.948 15.788 4.201 8.293.187 9.32.445 11.508 3.16 1.322 1.64 3.828 3.34 5.574 3.771 3.875.957 5.093 2.61 2.626 3.556-1.414.542-1.525 1.069-.504 2.298 1.927 2.319 4.13 1.943 4.855-.826 1.14-4.355 3.127-1.033 3.021 5.064-.057 3.276.128 6.737.396 7.685.268.948 1.133 4.205 1.942 7.218.808 3.013 1.926 5.727 2.481 6.07.555.342 1.007 1.556 1.007 2.693s1.797 5.526 3.992 9.732l3.992 7.65 1.798-2.766c2.642-4.026 4.028-9.69 4.028-16.484 0-5.048.41-6.202 2.59-7.362 3.402-1.811 16.332-14.805 17.297-17.381.503-1.34 2.004-2.011 4.46-2.011 2.027 0 4.593-.815 5.718-1.832 1.907-1.723 2.193-1.586 4.352 2.011 1.273 2.123 3.437 5.107 4.783 6.644 1.872 2.139 2.352 3.959 2.05 7.757-.325 4.078-.043 4.956 1.582 4.956 1.087 0 2.948-1.059 4.172-2.37 2.64-2.83 3.081-2.306 4.171 5.243.457 3.16 1.315 6.32 1.906 7.039.592.718.84 4.695.54 8.834-.453 6.249-.169 8.019 1.69 10.379 1.231 1.563 2.23 3.606 2.23 4.56 0 5.27 7.652 16.543 9.782 14.401.208-.21-.239-3.169-1.007-6.572-.935-4.141-2.398-6.991-4.388-8.619-1.635-1.337-3.365-3.737-3.848-5.315-.482-1.577-1.604-3.39-2.517-4.058-1.446-1.055-1.467-1.978 0-6.93 1.555-5.253 1.943-5.655 4.999-5.352 5.022.499 6.185 1.128 6.185 3.376 0 1.132 1.036 2.73 2.302 3.52 1.333.83 2.302 2.668 2.302 4.38 0 2.91.1 2.887 5.79-2.01l5.79-4.992-.396-6.5c-.293-4.974-1.191-7.65-3.776-11.277-1.862-2.612-4.064-5.744-4.927-6.966-1.408-1.995-1.172-2.673 2.59-6.429 3.962-3.956 4.319-4.079 6.329-2.262 1.887 1.705 2.2 1.717 2.805.144.375-.976 1.646-1.76 2.805-1.76 1.16 0 2.603-.516 3.237-1.15.634-.632 3.363-1.457 6.042-1.83 3.845-.538 5.923-1.808 9.961-6.034 2.813-2.943 5.128-6.027 5.143-6.86.015-.832 1.33-3.207 2.913-5.278 3.402-4.454 3.582-5.915.863-6.967-1.877-.727-1.866-.876.216-2.406 1.869-1.374 1.93-1.652.36-1.652-2.862 0-3.697-2.37-1.08-3.053 2.202-.575 2.141-.84-1.15-5.71-3.328-4.924-3.363-5.22-1.51-8.044 1.056-1.61 3.564-3.668 5.574-4.597l3.632-1.688-5.07.539c-5.322.572-10.466-1.642-10.466-4.489 0-2.462 10.705-9.718 12.335-8.368 1.088.902.997 1.774-.431 3.95-1.012 1.543-1.574 3.098-1.223 3.448.35.35 1.235-.441 1.942-1.76 1.397-2.607 4.67-3.107 8.2-1.22 1.75.935 1.97 1.674 1.078 3.34-.908 1.695-.597 2.511 1.547 3.914 2.176 1.424 2.654 2.625 2.445 6.32-.255 4.522-.2 4.56 2.77 3.304 4.95-2.092 5.042-2.567 2.013-10.055l-2.913-7.218 2.698-2.981c1.493-1.644 4.538-5.02 6.76-7.506 3.298-3.689 4.36-4.25 5.719-3.124 2.392 1.983 4.711.683 9.674-5.35 9.396-11.426 13.02-20.112 13.234-31.603.074-3.997-2.911-7.42-5.07-5.782-1.83 1.386-6.114 1.366-6.114-.036 0-.56-1.198-1.47-2.662-2.011-2.427-.897-2.519-1.184-1.007-3.34.912-1.3 5.94-5.985 11.149-10.379 9.049-7.632 13.977-9.744 16.579-7.146 1.126 1.124 8.987.386 10.681-1.006.903-.741 2.267-.635 4.028.324 3.422 1.863 11.619 2.208 10.141.43-1.629-1.96 8.982-10.398 13.45-10.701 3.71-.252 5.996 1.332 3.849 2.657-.644.397-1.187 1.529-1.187 2.55 0 1.524.474 1.44 2.661-.61 1.465-1.375 3.278-2.514 4.028-2.514.75 0 1.367-.71 1.367-1.58 0-2.09 3.03-4.568 4.495-3.664 1.603.99-2.44 8-4.891 8.476-1.064.206-4.593 3.18-7.84 6.607-3.247 3.429-6.507 6.25-7.229 6.25-.72 0-2.186 1.503-3.272 3.339-2.289 3.869-2.455 12.252-.396 19.07l1.367 4.596 2.769-3.735c1.522-2.054 3.484-3.735 4.351-3.735.868 0 1.236-.525.828-1.185-1.179-1.904 2.818-7.137 4.855-6.356 1.265.485 1.579.153 1.079-1.15-.859-2.234 1.298-6.567 2.805-5.638.6.371 1.079.166 1.079-.466 0-.633-.508-1.47-1.151-1.868-.644-.397-.885-1.251-.504-1.867.382-.616.158-1.754-.503-2.55-1.616-1.944 2.741-9.268 4.999-8.403.877.336 2.22-.123 2.985-1.042.763-.919 1.954-1.584 2.66-1.472.707.111 2.774-.218 4.568-.719 2.369-.66 3.763-.408 5.07.898 1.636 1.633 2.14 1.537 5.431-.97 6.117-4.659 15.966-8.51 18.341-7.182 1.255.701 2.486.714 3.13.072 1.364-1.363-2.068-8.367-4.1-8.367-2.083 0-4.496-3.05-3.093-3.915.61-.377 2.433-.188 4.063.431 3.956 1.502 6.438.368 6.438-2.909 0-3.542 2.287-4.836 3.093-1.76.721 2.756.899 2.812 3.74 1.293 1.57-.838 2.59-.556 4.136 1.15 1.127 1.243 2.678 2.262 3.452 2.262s2.053.776 2.841 1.724c1.624 1.953 4 2.374 2.841.503-.862-1.393 2.613-5.675 4.603-5.675.725 0 1.92-.623 2.662-1.364 1.032-1.03.247-1.842-3.345-3.448-5.92-2.646-6.35-2.618-7.12.323-.742 2.832-3.093 1.877-3.093-1.256 0-5.137-15.068-12.33-27.98-13.36-5.184-.413-10.374-1.23-11.544-1.831-1.902-.979-2.043-.742-1.366 2.334.991 4.507-.661 5.347-5.359 2.73-2.823-1.573-5.906-2.079-11.868-1.94-9.551.222-13.234-.86-13.234-3.878 0-3.147-2.52-3.726-12.803-2.945-7.492.57-9.155.403-9.71-1.042-.37-.961-1.36-1.504-2.194-1.185-1.504.577-3.418-1.42-3.452-3.59-.033-2.144-4.078-1.9-7.912.466-4.258 2.628-6.362 1.978-3.56-1.113 1.69-1.865 1.38-2.003-4.891-2.011-3.68-.005-7.408-.18-8.308-.395-1.124-.27-1.664.682-1.726 3.052-.072 2.739-.615 3.448-2.59 3.448-1.366 0-2.817.34-3.236.754-.418.413-2.082.05-3.704-.79-2.281-1.182-3.445-1.216-5.107-.18-1.64 1.023-2.684 1.004-4.351-.036-1.838-1.146-2.278-.978-2.77.898-1.104 4.217-3.99 3.792-9.853-1.4-5.772-5.111-6.337-6.716-2.374-6.716 1.881 0 2.032-.329.935-2.083-1.001-1.601-2.68-2.073-7.193-2.011-3.398.047-6.4.712-7.084 1.58-1.587 2.014-13.901 1.424-13.486-.646.368-1.842-10.224-2.002-12.048-.18-.932.93-1.669.545-2.77-1.436-.826-1.49-1.523-3.027-1.546-3.448-.088-1.652-1.354-1.911-5.214-1.005-3.29.772-3.505.987-1.151 1.113 2.82.15 8.603 3.52 6.042 3.52-.717 0-1.623-.518-2.014-1.15-.391-.632-2.074-1.15-3.74-1.15-2.9 0-2.93.08-.791 1.653 2.205 1.62 2.2 1.639-.072 2.37-1.266.407-3.079 1.143-4.028 1.616-2.471 1.232-8.631.895-8.631-.467 0-.632 1.71-2.005 3.812-3.052 2.1-1.048 4.748-2.729 5.862-3.735 1.113-1.007 3.027-1.845 4.243-1.868 3.374-.062 7.968-2.903 6.33-3.914-1.035-.639-.992-1.284.144-2.658 1.25-1.513 1.193-1.696-.252-1.185-.95.337-2.573-.118-3.596-1.005-1.479-1.282-2.951-1.38-7.193-.431-3.355.75-6.074.817-7.336.144-1.105-.59-3.05-1.425-4.316-1.832-2.18-.701-2.187-.804-.252-2.227 1.88-1.382 1.788-1.58-1.15-2.19-.62-.129-1.152-.191-1.655-.18zm-546.122 1.01c-.129.02-.277.069-.395.141a1.002 1.002 0 1 0 1.382.31.966.966 0 0 0-.987-.45zm524 0a1.1 1.1 0 0 0-.395.141c-.47.29-.6.912-.31 1.383a1.002 1.002 0 0 0 1.692-1.072.966.966 0 0 0-.987-.452zM-240.389-114c-.309.007-.817.302-1.455 1.003-.705.774-2.452 1.412-3.892 1.412s-4.374 1.712-6.53 3.79c-3.147 3.034-3.468 3.643-1.523 3.085 1.332-.383 2.738-.146 3.113.52s1.659-.474 2.842-2.527c1.632-2.83 2.49-3.421 3.553-2.452 1.048.955 1.845.577 3.113-1.412 1.28-2.007 1.457-3.434.779-3.419zm102.122.092c-.281.033-.523.266-.658.65-.27.77.21 1.258 1.063 1.158.943-.111 1.126-.635.48-1.374-.292-.334-.604-.467-.885-.434zm478.126-.08c-.129.02-.277.069-.395.141a1.002 1.002 0 1 0 1.382.31.966.966 0 0 0-.987-.45zm52 0c-.129.02-.277.069-.395.141a1.002 1.002 0 1 0 1.382.31.966.966 0 0 0-.987-.45zm-625 2c-.129.02-.277.069-.395.141a1.002 1.002 0 1 0 1.382.31.966.966 0 0 0-.987-.45zm120 0c-.129.02-.277.069-.395.141-.47.29-.6.912-.31 1.383a1.002 1.002 0 0 0 1.692-1.072.966.966 0 0 0-.987-.452zm274 0c-.129.02-.277.069-.395.141a1.002 1.002 0 1 0 1.382.31.966.966 0 0 0-.987-.45zm347 0c-.129.02-.277.069-.395.141-.47.29-.6.912-.31 1.383a1.002 1.002 0 0 0 1.692-1.072.966.966 0 0 0-.987-.452zM-182.192-112c-.788.003-.953.334-.695 1.09.306.893 2.751 1.823 5.7 2.144 4.359.474 5.275 1.001 5.773 3.374.57 2.713 1.67 3.239 7.783 3.726 1.394.11 2.972.638 3.508 1.16.535.52 4.67.664 9.17.316 4.502-.348 9.93-.65 12.058-.668 2.383-.021 3.57-.472 3.106-1.195-.415-.646-.055-2.038.804-3.093 1.35-1.659 1.333-1.762-.183-.633-.964.719-3.069 1.285-4.676 1.266-1.608-.02-7.397.23-12.862.527-10.196.553-15.2-.835-15.2-4.218 0-.809-1.921-1.707-4.385-2.039-2.411-.324-5.893-.959-7.746-1.405-.976-.236-1.683-.354-2.155-.352zm544.051 1.012a1.1 1.1 0 0 0-.395.141 1.002 1.002 0 1 0 1.382.31.966.966 0 0 0-.987-.45zM280.999-109c-1.307-.016-3.704.506-6.171 1.601-3.179 1.411-6.598 2.155-8.702 1.845-1.998-.295-5.508.336-8.285 1.53-2.65 1.141-6.384 2.089-8.285 2.089-2.693 0-3.153.28-2.115 1.322 1.038 1.042.571 2.059-2.08 4.49-2.27 2.08-2.915 3.276-1.941 3.584 3.844 1.216 4.511 1.715 1.802 1.357-3.536-.467-4.206-.065-6.898 4.176-1.69 2.66-1.727 3.12-.312 2.575 1.85-.712 4.654 1.842 3.709 3.376-.315.511 1.755.982 4.61 1.044 2.856.062 4.452-.142 3.537-.452-2.22-.752-4.438-3.655-4.438-5.812 0-2.342 8.65-11.925 12.619-13.99 1.747-.909 4.06-1.67 5.13-1.67 2.202 0 14.671-3.879 17.369-5.394 1.96-1.102 1.757-1.654.45-1.67zm-496.7-.996c-.626.074-1.041 1.162-.897 3.246.185 2.67-.334 3.425-2.439 3.742-1.456.22-3.766-.361-5.164-1.336-1.397-.975-4.63-2.178-7.173-2.635-4.396-.79-4.626-.677-4.626 2.291 0 3.023 2.163 4.292 3.479 2.024.813-1.4 6.298.067 6.42 1.718.049.673-1.09 1.587-2.547 2.024-2.285.686-2.148.812 1.004.917 2.01.067 5.11-.527 6.886-1.299 1.777-.77 5.273-1.733 7.747-2.138 2.473-.405 4.696-1.404 4.949-2.215.29-.93-.443-1.268-1.973-.954-1.752.359-2.706-.356-3.479-2.52-.72-2.017-1.56-2.94-2.187-2.865zm21.2 0a6.37 6.37 0 0 0-2.129.423c-1.984.776-1.92 1.067.897 3.713 3.96 3.72 7.733 3.827 7.733.228 0-2.465-3.328-4.458-6.5-4.365zm-8.64-.992c-.129.02-.277.069-.395.141a1.002 1.002 0 1 0 1.382.31.966.966 0 0 0-.987-.45zm721 0c-.129.02-.277.069-.395.141-.47.29-.6.912-.31 1.383a1.002 1.002 0 0 0 1.692-1.072.966.966 0 0 0-.987-.452zm-713.285 3.013c.527-.13 1.3.26 1.852.923.678.815.762 1.602.216 1.938-.508.313-1.437-.042-2.068-.8-.678-.815-.762-1.632-.216-1.969a.784.784 0 0 1 .216-.092zm675.359-1.01c-.138.017-.237.07-.344.115-1.606.689-2.173 4.614-.861 6.08 1.098 1.227 4.555.968 5.303-.385.42-.758 1.66-.758 3.444 0 3.775 1.604 4.25 1.49 2.686-.615-.732-.987-1.01-2.372-.62-3.079.392-.707.228-1.27-.378-1.27s-1.43.595-1.826 1.309c-.474.858-1.63.596-3.443-.731-1.32-.966-2.993-1.54-3.961-1.424zm-6.67.986c-1.032.028-1.742 1.272-.871 2.45.54.732 1.079.732 1.953 0 .873-.73.873-1.31 0-2.042-.37-.31-.737-.418-1.081-.408zm19.982.999c-2.518 0-2.75.239-1.526 1.537 1.66 1.762 1.539 1.747 3.962.928 2.63-.888 1.076-2.465-2.436-2.465zm-737.386.012c-.129.02-.277.069-.395.141a1.002 1.002 0 1 0 1.382.31.966.966 0 0 0-.987-.45zm60 0c-.129.02-.277.069-.395.141a1.002 1.002 0 1 0 1.382.31.966.966 0 0 0-.987-.45zm-16.285 2.013a.784.784 0 0 0-.216.092c-.546.337-.462 1.154.216 1.97.631.757 1.56 1.112 2.068.8.546-.337.462-1.124-.216-1.94-.552-.663-1.325-1.052-1.852-.922zm239.285.987c-.129.02-.277.069-.395.141-.47.29-.6.912-.31 1.383a1.002 1.002 0 0 0 1.692-1.072.966.966 0 0 0-.987-.452zm463.441-.008c-.6.04-.3.29.9 1.013.99.596 3.15 1.03 4.8.979l3-.07-3-.909c-1.65-.492-3.81-.927-4.8-.978-.4-.021-.7-.049-.9-.035zm-707.441 1.008c-.129.02-.277.069-.395.141a1.002 1.002 0 1 0 1.382.31.966.966 0 0 0-.987-.45zm525 0c-.129.02-.277.069-.395.141-.47.29-.6.912-.31 1.383a1.002 1.002 0 0 0 1.692-1.072.966.966 0 0 0-.987-.452zm-499.895-.01a6.028 6.028 0 0 0-.722.03c-.626.052-1.194.194-1.605.49-.983.705-.843 1.253.522 1.872 2.219 1.007 4.123.74 4.774-.662.428-.923-1.276-1.667-2.969-1.73zm220.895 1.01c-.129.02-.277.069-.395.141a1.002 1.002 0 1 0 1.382.31.966.966 0 0 0-.987-.45zm103 0c-.129.02-.277.069-.395.141a1.002 1.002 0 1 0 1.382.31.966.966 0 0 0-.987-.45zm326 4a1.1 1.1 0 0 0-.395.141c-.47.29-.6.912-.31 1.383a1.002 1.002 0 0 0 1.692-1.072.966.966 0 0 0-.987-.452zm17.151-1.011c-.497.036-.883 1.051-.986 2.962-.143 2.686.255 3.037 3.697 3.037 2.307 0 3.616-.495 3.204-1.215-.384-.668-1.447-1.215-2.36-1.215-.911 0-1.93-.82-2.287-1.822-.431-1.212-.88-1.775-1.268-1.747zM-251.025-99c-2.654-.006-5.941 1.457-5.785 3.074.42 4.34-.205 6.027-2.61 7.007-1.931.786-2.06 1.053-.564 1.108 1.08.04 2.557 1.043 3.28 2.216 1.432 2.324 4.562 2.077 6.702-.536.717-.876 2.002-1.609 2.857-1.609.855 0 1.552-.495 1.552-1.108 0-.613 1.52-1.9 3.35-2.86 4.2-2.2 6.084-2.231 2.294-.035-1.552.899-2.314 1.631-1.693 1.644 1.944.04 4.345-1.963 4.62-3.86.339-2.34-3.339-4.31-7.23-3.897-1.67.177-3.69-.112-4.48-.608-.592-.37-1.408-.534-2.293-.536zm538.884 2.012a1.1 1.1 0 0 0-.395.141c-.47.29-.6.912-.31 1.383a1.002 1.002 0 0 0 1.692-1.072.966.966 0 0 0-.987-.452zm-458.167-.994c-2.71.121-6.254.856-7.163 1.798-.587.608-.703 3.13-.259 5.586.67 3.695 1.113 4.224 2.511 3.022.93-.8 1.393-1.961 1.034-2.563-.36-.602.298-1.44 1.477-1.875 3.09-1.139 6.308-4.265 5.612-5.432-.277-.466-1.586-.609-3.212-.536zm-15.67 1.983c-.513.018-1.268.335-2.427.933-1.59.82-3.568 1.497-4.382 1.5-1.152.006-1.185.33-.202 1.501 1.795 2.14-.363 3.183-3.405 1.634-3.222-1.64-1.45.166 4.011 4.101 2.373 1.71 4.488 2.7 4.685 2.2.198-.498 1.239-.9 2.326-.9 2.815 0 3.189-2.18.775-4.567-1.404-1.39-1.728-2.392-.977-3.135.606-.6.865-1.714.573-2.467-.213-.549-.465-.819-.978-.8zm488.837.011a1.1 1.1 0 0 0-.395.141c-.47.29-.6.912-.31 1.383a1.002 1.002 0 0 0 1.692-1.072.966.966 0 0 0-.987-.452zM-207.591-94c-.617 0-.995.628-.84 1.405.153.778-.855 1.585-2.242 1.802-1.797.282-2.52 1.186-2.52 3.135 0 3.271-1.973 4.92-2.907 2.415-.364-.976-2.103-2.526-3.852-3.424-2.778-1.426-3.251-1.407-3.816.109-.54 1.447-.934 1.482-2.416.216-1.493-1.275-1.963-1.202-2.871.468-1.398 2.57-3.482 1.265-2.591-1.621.374-1.216.326-2.199-.105-2.199-.596 0-6.536 3.368-9.21 5.226-.17.119.228 1.669.876 3.423 1.11 3.003 1.5 3.136 6.478 2.559 5.422-.63 9.785.751 8.613 2.702-.361.603-4.035 1.124-8.158 1.19-7.029.111-7.249.205-3.396 1.26 2.26.62 4.939 2.056 5.952 3.208 2.188 2.488 8.59 2.064 15.721-1.045 3.88-1.691 5.156-1.747 9.384-.468 2.687.812 5.712 2.116 6.723 2.919 1.458 1.156 1.402.973-.175-.937-2.073-2.512-1.427-3.852 2.556-5.37.924-.352.134-.67-1.75-.72-1.886-.05-4.293-.749-5.358-1.55-2.52-1.896-5.367-10.29-3.991-11.748 1.36-1.443 1.298-2.955-.106-2.955zm73.23 1.001c-1.544-.026-2.639.312-2.639 1.023 0 1.669 1.409 2.306 3.96 1.815 1.271-.245 3.345-.464 4.601-.486 2.034-.036 1.972-.16-.57-1.201-1.812-.742-3.807-1.124-5.351-1.15zM-154.511-94c-3.413 0-8.488 4.216-8.488 7.058 0 3.26 3.561 8.978 5.647 9.063.959.04 6.854.24 13.104.43 7.899.24 12.751.965 15.91 2.4 2.5 1.137 5.455 2.15 6.57 2.257 3.465.336 4.8 2.504 2.984 4.837-1.444 1.854-1.404 1.897.32.537 1.628-1.285 2.088-1.166 3.125.788.668 1.26 1.207 3.005 1.207 3.905 0 1.106.87 1.5 2.7 1.147 3.316-.64 4.71 1.2 2.379 3.152-1.39 1.164-2.081 1.075-3.73-.43-1.85-1.689-2.26-1.675-4.58-.035-2.02 1.426-2.263 2.121-1.208 3.403.731.889.865 1.635.32 1.684-.546.048-3.272.177-6.073.286-3.85.15-5.212.706-5.505 2.221-.28 1.451.364 2.02 2.273 2.007 1.452-.01 3.317-.468 4.155-1.003 1.645-1.052 10.405 2.595 10.405 4.334 0 .548 1.368 1.365 3.055 1.792 2.331.59 2.708.996 1.491 1.755-1.11.692-.54.965 1.882.896 1.92-.055 5.49.949 7.92 2.22 5.74 3.005 5.68 3.017 3.232.287-2.049-2.283-2.063-2.382.177-2.973 3.638-.96 2.504-4.875-3.054-10.425-4.834-4.827-4.963-5.102-2.84-6.7 2.976-2.241 3.277-2.145 7.493 1.828 2.854 2.69 4.015 3.158 5.22 2.15.852-.714 1.256-1.8.888-2.401-.369-.602.402-1.367 1.74-1.72 2.27-.598 2.3-.792.568-2.722-1.021-1.139-2.47-1.836-3.231-1.54-.763.294-2.33-.509-3.48-1.792-1.16-1.292-3.524-2.329-5.292-2.329-3.822 0-6.621-3.877-3.907-5.41.913-.515 1.328-1.443.888-2.077-1.02-1.468-7.316-4.46-8.665-4.12-.562.141-1.841-.074-2.842-.466-1.595-.624-1.544-.892.391-2.328 1.845-1.37 1.907-1.648.355-1.648-1.02 0-2.17.514-2.557 1.146-.437.714-1.435.751-2.628.107-1.056-.57-2.429-1.084-3.054-1.146-.625-.062-1.136-.68-1.136-1.361 0-2.24-3.811-4.102-7.316-3.583-1.893.28-3.187.976-2.841 1.54 1.021 1.668-2.796 2.534-4.582 1.04-.902-.756-2.125-1.06-2.734-.681-1.54.96-2.989-1.706-2.593-4.8.261-2.038-.224-2.573-2.308-2.544-1.451.02-3.392.665-4.333 1.433-1.971 1.609-2.568 7.638-.959 9.6.715.873.61 1.63-.284 2.186-2.079 1.296-4.444-2.84-4.261-7.451l.142-4.084.71 4.585c.608 3.941.804 4.215 1.456 1.899 1.076-3.82-1.179-8.204-4.226-8.204zm174.274 2.006c-.468-.026-.762.027-.762.177 0 .195 1.234.683 2.742 1.085 3.576.951 3.632.956 2.857.126-.527-.565-3.434-1.31-4.837-1.388zm-7.903 7.006c.387-.06.77.099.987.452a1.003 1.003 0 0 1-1.692 1.072c-.29-.47-.16-1.092.31-1.383.118-.072.266-.121.395-.14zm595 2c-.129.02-.277.069-.395.141a1.002 1.002 0 1 0 1.382.31.966.966 0 0 0-.987-.45zm-783.399-1.011a2.322 2.322 0 0 0-1.185.287c-4.198 2.245-4.301 8.036-.143 8.036 3.123 0 3.474.976 1.651 4.628-2.175 4.357-3.27 4.952-6.031 3.23-1.718-1.073-2.911-1.12-4.918-.144-4.768 2.317-12.168 2.753-16.443.968-2.21-.922-4.02-2.206-4.02-2.87 0-1.327-5.59-1.663-8.617-.502-1.526.585-1.617.948-.395 1.722.843.534 2.32.932 3.267.897 1.137-.042.941-.39-.574-1.04-1.873-.805-1.943-1.011-.359-1.077 2.967-.123 3.804 2.292 1.041 3.014-1.791.468-2.345 1.42-2.118 3.552.417 3.913-2.307 4.624-3.698.968-1.299-3.414-5.143-4.699-11.56-3.838-5.174.693-8.456-1.634-5.026-3.552 1.792-1.002 1.748-1.198-.574-2.44-1.907-1.02-2.959-1.042-4.129-.072-1.187.986-2.492.825-5.385-.681-5.052-2.632-12.646-4.001-14.36-2.583-.903.747-2.49.517-4.81-.682-3.239-1.674-3.767-1.647-7.288.466-9.274 5.567-12.703 7.074-13.75 6.028-.678-.678.775-2.186 3.877-4.054 2.725-1.642 4.329-3.025 3.554-3.05-.774-.025-3.062.987-5.097 2.224-2.97 1.805-4.062 1.975-5.493.861-1.495-1.162-1.57-1.12-.503.323 1.572 2.125 2.892 8.663 1.939 9.615-1.262 1.26-3.805-1.802-3.805-4.592 0-1.501-.388-2.75-.862-2.798-1.928-.197-4.56-.962-9.334-2.691-2.765-1.002-6.22-1.83-7.683-1.83s-2.954-.477-3.303-1.04c-.348-.564-3.728-1.059-7.539-1.112-3.81-.054-7.977-.624-9.226-1.292-1.55-.829-2.966-.866-4.452-.072-1.616.865-2.507.723-3.554-.538-.775-.934-2.886-1.686-4.667-1.686-1.78 0-3.575-.558-3.985-1.22-.515-.832-1.211-.8-2.261.072-1.038.86-1.759.886-2.262.072-.48-.775-1.726-.552-3.554.645-1.547 1.013-2.79 1.408-2.8.862-.01-.547-.502-.264-1.078.645-.575.91-2.444 1.85-4.164 2.081-1.72.23-4.143 1.687-5.385 3.265s-2.548 2.62-2.872 2.296c-.324-.324-2.06.173-3.877 1.112l-3.303 1.722 3.734 3.193c3.545 3.053 7.041 5.019 9.37 5.238 2.063.195 1.92 2.84-.216 3.983-1.559.833-3.027.7-5.277-.467-2.05-1.063-3.828-1.249-5.098-.574-1.068.567-2.973 1.369-4.236 1.794-2.224.748-2.197.8.287 1.758 1.537.592 2.309 1.618 1.939 2.583-.953 2.481 9.87 3.484 11.631 1.076 1.706-2.33 3.617-1.097 3.375 2.189-.184 2.5-5.948 6.956-7.719 5.955-.45-.254-1.876.584-3.195 1.902-1.674 1.673-2.188 3.188-1.651 4.95 1.182 3.88 4.215 6.732 6.498 6.136 1.132-.296 2.507.248 3.051 1.22 1.351 2.412 8.66 4.828 10.878 3.587 2.396-1.34 3.331.51 2.01 3.982-1.237 3.252-5.607 6.603-12.062 9.292-2.466 1.028-4.224 2.13-3.913 2.44.542.542 6.538-1.913 10.124-4.126.947-.585 3.57-2.046 5.816-3.265 4.689-2.545 11.577-9.228 10.806-10.476-.287-.463.243-1.48 1.184-2.26.941-.78 1.723-2.077 1.723-2.87 0-2.283 3.238-4.34 5.457-3.48 1.928.747 1.914.852 0 2.26-1.752 1.29-2.888 5.238-1.508 5.238 2.547 0 6.51-2.609 5.996-3.946-1.113-2.897 4.034-4.968 5.887-2.368 1.443 2.024 6.417 3.822 12.458 4.52 3.23.374 8.364 1.936 11.416 3.48 3.768 1.907 5.972 2.45 6.893 1.687.946-.785 1.927-.268 3.23 1.722 1.029 1.567 1.868 3.193 1.868 3.587 0 1.17 5.055 5.018 6.641 5.06 2.434.063 5.112 7.687 3.483 9.901-.57.775.226 1.774 2.082 2.619 2.96 1.348 2.988 1.405.897 3.91-1.167 1.4-1.408 1.944-.538 1.184 2.19-1.912 6.506.276 4.739 2.404-1.436 1.729-.468 2.978 2.297 2.978 2.888 0 12.565 9.53 12.565 12.377 0 2.726-1.786 4.34-2.872 2.583-1.599-2.585-2.286-.835-2.405 5.992-.07 3.947-.324 10.275-.539 14.063-.406 7.194 2.411 15.687 5.027 15.176.702-.137 1.341.865 1.436 2.225.262 3.776 5.05 10.756 8.185 11.947 1.542.585 2.465 1.619 2.046 2.296-.456.737.086 1.08 1.364.86 1.668-.285 2.562 1.002 4.2 5.956 1.15 3.473 3.093 7.383 4.309 8.682 1.601 1.71 1.88 2.714.969 3.624-.911.91-.283 2.115 2.298 4.413 1.96 1.745 3.59 4.244 3.625 5.56.069 2.574 6.403 8.348 7.719 7.032.437-.437-.084-1.286-1.185-1.901-1.1-.616-2.01-1.666-2.01-2.332 0-.666-1.551-3.508-3.447-6.314-1.895-2.807-3.448-5.478-3.446-5.92.002-.442-1.137-2.969-2.549-5.633-1.983-3.742-2.276-5.151-1.22-6.206 1.572-1.571 4.918.472 4.918 3.013 0 .8 2.326 4.643 5.17 8.503 2.843 3.86 5.17 7.413 5.17 7.929s1.727 2.972 3.84 5.453c5.092 5.979 6.515 8.818 5.78 11.624-.789 3.016 2.917 5.944 15.402 12.126 7.943 3.934 9.982 4.541 11.739 3.445 1.738-1.085 2.87-.808 6.283 1.506 5.41 3.67 12.77 7.39 14.575 7.39 2.844 0 7.862 6.094 7.862 9.544 0 2.84.26 3.158 1.687 1.973 1.393-1.154 1.917-.925 2.944 1.328a5.043 5.043 0 0 0 4.236 2.977c1.634.136 3.55.73 4.273 1.328.879.73 1.769.366 2.692-1.112 3.08-4.928 8.288 2.44 8.114 11.48-.078 4.034-.9 6.163-3.878 9.795-2.088 2.546-4.431 7.117-5.205 10.189-1.27 5.042-1.22 5.7.646 6.744 1.954 1.093 1.924 1.26-.359 3.014l-2.405 1.866 3.805 8.61c2.098 4.736 5.064 12.454 6.57 17.149 2.316 7.221 3.415 8.989 7.108 11.48 2.401 1.62 6.233 4.614 8.508 6.673l4.129 3.768-1.436 19.767c-.78 10.885-1.554 22.646-1.723 26.119-.202 4.126-1.386 8.467-3.447 12.52-2.275 4.477-2.975 7.16-2.477 9.651.38 1.899.073 5.16-.682 7.247-1.073 2.966-1.069 4.36.036 6.422 1.688 3.152 1.187 15.281-.718 17.185-.99.99-1.502.83-2.082-.681-.61-1.59-.991-1.713-1.76-.503-1.24 1.956-1.278 3.58-.071 2.835 1.319-.815 7.404 5.897 6.57 7.247-.38.614-1.37.866-2.226.538-1.207-.463-1.472.62-1.185 4.879.204 3.025-.219 6.207-.933 7.068-1.001 1.205-.921 1.492.359 1.22 2.456-.524 8.198 3.678 7.503 5.489-1.077 2.803 1.209 1.61 2.549-1.328.72-1.578 1.832-2.87 2.477-2.87.645 0 1.185-1.21 1.185-2.69 0-1.481 1.03-3.626 2.297-4.772 1.268-1.147 2.065-2.35 1.76-2.655-.306-.305 1.053-2.36 3.015-4.592 3.47-3.95 3.493-4.085 1.149-4.951-4.634-1.713-4.186-10.19.538-10.19 1.003 0 1.58-1.3 1.58-3.551 0-2.6.632-3.717 2.333-4.162 1.969-.514 2.061-.805.647-1.901-.92-.712-1.845-2.325-2.047-3.588-.295-1.85.272-2.296 2.944-2.296 3.187 0 4.444-1.19 5.744-5.417.42-1.364 2.415-2.186 6.498-2.727 9.39-1.245 11.625-5.394 6.319-11.696-3.452-4.1-2.725-5.293 1.687-2.762 3.026 1.735 3.566 1.72 7.252-.036 3.995-1.904 6.851-5.85 12.924-17.938 2.457-4.892 2.84-6.662 1.902-8.718-.647-1.42-.823-3.146-.394-3.84.851-1.377 9.02-7.139 10.123-7.139.377 0 1.273-.76 1.975-1.686.701-.925 3.32-1.872 5.816-2.117 4.365-.426 4.632-.72 7.682-7.785 2.587-5.99 3.196-9.077 3.231-16.754.031-6.616.497-9.687 1.58-10.333.848-.505 3.433-3.717 5.744-7.103 5.544-8.121 5.842-14.162.826-16.754-1.857-.96-4.055-2.695-4.883-3.875-1.107-1.578-3.362-2.281-8.544-2.655-6.043-.436-7.586-1.051-10.734-4.198-4.438-4.434-6.442-4.574-9.478-.717-1.633 2.075-3.208 2.83-5.349 2.583-3.65-.423-3.601-2.398.072-3.265 1.456-.343 2.808-1.506 3.016-2.583.559-2.901-1.504-2.412-5.888 1.435-2.143 1.88-4.213 3.108-4.595 2.727-1.21-1.209 6.135-10.834 7.61-9.974.751.437.33-.392-.933-1.83-1.264-1.437-2.177-2.929-2.046-3.336 1.35-4.222-6.129-10.512-12.493-10.512-3.165 0-4.969-.94-8.258-4.305-2.314-2.368-5.47-5.527-7.036-7.032-1.566-1.505-2.515-3.27-2.118-3.91.475-.769-1.292-.904-5.134-.395-3.666.486-6.1.328-6.57-.43-.41-.664-1.34-1.123-2.082-1.005-2.292.364-7.677-2.294-7.754-3.839-.04-.805-.542-.309-1.113 1.112-.572 1.42-1.525 2.583-2.118 2.583s-.815.961-.503 2.153c.818 3.124-1.6 4.1-3.123 1.256-1.01-1.886-.861-3.013.574-5.203 2.363-3.603.621-3.6-2.764 0-1.441 1.533-3.329 2.487-4.2 2.153-1.458-.559-1.996.345-4.56 7.57-.439 1.237-1.235.963-3.446-1.112-2.595-2.436-3.285-2.577-7.431-1.471-4.375 1.167-4.736 1.076-7.575-2.296-2.732-3.245-2.928-4.122-2.262-10.62.718-7.004.7-7.11-2.441-8-1.748-.495-5.005-.92-7.216-.969-3.766-.084-3.976-.34-3.626-3.552.205-1.886.758-3.953 1.256-4.592.498-.639 1.242-3.344 1.652-6.027.66-4.324.51-4.88-1.472-4.88-5.05 0-7.99 2.091-8.365 5.956-.337 3.48-.728 3.827-5.457 4.628-6.384 1.081-9.454-.696-12.673-7.354-2.261-4.679-3.187-14.61-1.507-16.288.455-.455.683-2.565.502-4.664-.287-3.332.211-4.14 4.021-6.494 5.167-3.191 6.45-3.46 10.519-2.188 1.69.528 4.834 1.245 6.964 1.614 3.462.6 3.704.501 2.334-1.148-1.304-1.57-1.2-2.113.718-3.516 1.447-1.058 3.29-1.353 5.134-.825 1.58.452 4.239.76 5.923.682 3.493-.163 6.527 3.487 7.109 8.61.446 3.933 3.12 8.36 5.061 8.36 1.954 0 1.825-1.52-.861-10.907-1.264-4.416-2.298-8.733-2.298-9.58 0-.846 2.758-4.307 6.14-7.713 3.38-3.406 5.912-6.468 5.6-6.78-.313-.313.257-.895 1.292-1.292 1.035-.397 1.615-1.129 1.292-1.65-.322-.522-.033-1.289.61-1.687.79-.488.754-1.472-.071-3.013-1.422-2.655-.996-8.467.61-8.467.604 0 1.428 1.291 1.867 2.87.654 2.348.84 2.433.933.538.175-3.53 5.66-10.87 8.114-10.87 4.302 0 5.793-1.184 4.38-3.445-1.018-1.628-.884-2.724.646-5.058 1.075-1.64 2.743-2.978 3.698-2.978.954 0 4.163-1.23 7.144-2.727 3.706-1.86 6.147-2.42 7.718-1.793 1.326.529 1.624.958.682 1.004-2.285.113-5.851 3.543-5.851 5.633 0 1.392.52 1.27 2.584-.574 1.422-1.271 4.239-2.976 6.247-3.767 2.008-.792 3.951-2.192 4.308-3.122.357-.929 1.159-1.361 1.795-.968.636.393 1.149.24 1.149-.323 0-2.335-1.444-2.145-4.129.538-2.294 2.293-3.185 2.58-4.523 1.471-.914-.758-1.292-1.973-.862-2.69.584-.974.339-.975-.897 0-1.306 1.029-2.294.643-4.739-1.866-3.24-3.325-3.149-4.593.395-4.593 1.181 0 2.118-.815 2.118-1.865 0-2.905-7.701-1.178-11.667 2.619-2.297 2.198-3.639 2.786-4.488 1.937-1.678-1.677 8.156-10.219 12.852-11.157 1.976-.395 6.14-.718 9.263-.718 3.121 0 6.805-.622 8.185-1.363 1.38-.741 4.064-1.655 5.96-2.045 2.988-.615 3.446-1.206 3.446-4.485 0-5.047-1.441-5.976-6.606-4.197-2.926 1.007-4.563 1.13-5.062.323-.933-1.51 2.737-4.294 5.852-4.413 1.672-.064 1.864-.26.646-.718-.948-.356-3.052-1.608-4.703-2.762-1.65-1.155-3.273-1.824-3.59-1.507-.317.317-1.43-.734-2.477-2.332-1.048-1.598-1.554-2.906-1.113-2.906.44 0-.36-1.202-1.76-2.69-1.398-1.49-2.799-4.174-3.122-5.956-.939-5.171-1.578-5.411-5.026-1.722-1.945 2.08-3.965 3.227-4.99 2.834-.944-.362-2.067-.076-2.514.646-.55.89-1.581.477-3.23-1.292-2.71-2.907-3.409-5.268-1.832-6.243 1.617-.998 1.243-3.946-.502-3.946-.856 0-3.053-1.396-4.883-3.121-2.587-2.44-4.546-3.206-8.831-3.337-5.15-.157-5.625.086-7.036 3.444-1 2.38-1.139 4.29-.431 5.669.709 1.382.586 2.637-.323 3.731-.753.907-.974 1.65-.503 1.65.47 0 .282.685-.43 1.543-.99 1.191-.754 2.286 1.004 4.52 2.834 3.6 2.923 7.456.288 11.194-1.295 1.836-2.051 5.25-2.154 9.65-.118 5.029-.667 7.165-2.154 8.252-1.74 1.272-2.647.918-6.57-2.762-4.144-3.887-4.491-4.67-4.02-9.005l.502-4.772-5.098-.574c-3.333-.375-7.236-2.029-11.273-4.807-3.397-2.338-6.669-3.934-7.288-3.552-1.392.86-2.922-1.456-2.98-4.52-.031-1.715-.69-2.206-2.62-1.938-1.892.263-2.881-.437-3.698-2.583-1.603-4.213-.28-6.963 7.144-14.745 1.742-1.826 2.887-3.759 2.55-4.305-.84-1.357 3.524-3.531 5.528-2.763.89.341 2.854-.407 4.38-1.65 3.015-2.457 3.174-2.266-3.447-4.305-3.034-.935.586-2.898 4.632-2.512 3.577.342 3.906.686 4.236 4.664.259 3.13-.138 4.511-1.472 5.023-1.466.562-1.19 1.07 1.364 2.404 3.02 1.577 3.337 1.495 5.385-1.22 2.03-2.692 2.33-2.773 4.81-1.148 1.462.957 3.188 1.422 3.806 1.04 1.821-1.124-3.83-6.326-7.718-7.103-1.959-.392-4.363-1.94-5.35-3.444-1.871-2.855-1.646-3.126 2.478-2.799 2.722.216 9.549-2.887 9.549-4.34 0-.495-.72-1.898-1.616-3.122-1.172-1.603-1.276-2.634-.394-3.695 1.641-1.977-2.044-4.759-6.355-4.808-2.73-.031-3.028.278-2.082 2.045.845 1.578.375 2.975-1.903 5.884-2.8 3.575-3.057 3.677-4.487 1.722-.84-1.148-1.544-3.212-1.544-4.592 0-1.38-.746-3.124-1.651-3.875-1.327-1.1-2.003-.788-3.554 1.579-2.075 3.163-3.985 2.953-3.985-.43 0-1.183-1.074-2.397-2.477-2.763-1.94-.507-2.193-.976-1.185-2.189 1.782-2.145-2.425-6.808-5.457-6.888zm25.065.999c-.291 0-.525.45-.525 1s.576 1 1.275 1c.698 0 .932-.45.525-1-.408-.55-.984-1-1.275-1zm750.144.011c-2.327.088-5.39.706-6.574 1.538-.93.652 5.136.58 9.823-.108.201-.03.02-.469-.406-.971-.323-.382-1.448-.512-2.843-.459zm-869.81 1.001c-.129.02-.277.069-.395.141a1.002 1.002 0 1 0 1.382.31.966.966 0 0 0-.987-.45zm339 0c-.129.02-.277.069-.395.141a1.002 1.002 0 1 0 1.382.31.966.966 0 0 0-.987-.45zm-3 3c-.129.02-.277.069-.395.141-.47.29-.6.912-.31 1.383a1.002 1.002 0 0 0 1.692-1.072.966.966 0 0 0-.987-.452zm191.926-1.01c-.527-.015-.985.088-1.286.373-.93.879-.57 1.796 1.166 2.986 2.909 1.996 4.159 2.137 5.183.598.951-1.431-2.778-3.896-5.063-3.958zm-114.926 2.01a1.1 1.1 0 0 0-.395.141c-.47.29-.6.912-.31 1.383a1.002 1.002 0 0 0 1.692-1.072.966.966 0 0 0-.987-.452zm-328.429 1.993c-.558.055-1.104.536-2.022 1.448-1.856 1.844-1.86 2.09-.112 2.694 1.059.365 1.62 1.124 1.236 1.683-.436.633.717.65 3.107.034 2.108-.544 4.263-1.606 4.793-2.357.776-1.1.996-1.111 1.011 0 .01.76-.813 1.647-1.797 1.986-.985.34-1.488 1.052-1.124 1.583 1.221 1.776 2.725 1 4.606-2.39l1.872-3.368-3.782.674c-2.563.46-4.401.167-5.766-.943-.9-.733-1.464-1.098-2.022-1.044zM228.9-75c-1.93-.015-4.683 2.814-3.69 4.295.612.915 1.618.939 3.369.074 2.783-1.375 3.198-2.978 1.083-4.184A1.534 1.534 0 0 0 228.9-75zm-290.69 1c-.983 0-1.464.45-1.075 1 .39.55 1.198 1 1.79 1 .594 0 1.075-.45 1.075-1s-.808-1-1.79-1zm-73.351.012c-.129.02-.277.069-.395.141-.47.29-.6.912-.31 1.383a1.002 1.002 0 0 0 1.692-1.072.966.966 0 0 0-.987-.452zM-283.251-71c-.458 0-1.395.45-2.082 1-.687.55-.874 1-.416 1s1.395-.45 2.082-1c.687-.55.874-1 .416-1zm415.11.012c-.129.02-.277.069-.395.141a1.002 1.002 0 1 0 1.382.31.966.966 0 0 0-.987-.45zm-266 2c-.129.02-.277.069-.395.141a1.002 1.002 0 1 0 1.382.31.966.966 0 0 0-.987-.45zm261 0c-.129.02-.277.069-.395.141-.47.29-.6.912-.31 1.383a1.002 1.002 0 0 0 1.692-1.072.966.966 0 0 0-.987-.452zM-126.052-67c-.09.003-.177.04-.276.066-2.011.507-2.305 2.934-.35 2.934.984 0 1.678-.662 1.678-1.63 0-.85-.418-1.388-1.052-1.37zm14.552 7c-1.1 0-1.738.45-1.417 1 .321.55.959 1 1.417 1 .458 0 1.096-.45 1.417-1 .32-.55-.317-1-1.417-1zm157.075 1c-.81-.002-1.977.133-3.62.387-2.936.455-6.247.738-7.342.669-1.096-.07-1.723.295-1.405.809.87 1.41-4.523 4.564-8.081 4.715L22-52.28l3.373.704c1.855.398 3.12 1.174 2.81 1.725-.648 1.155 2.847 2.734 6.325 2.85 1.308.043 5.103-1.029 8.432-2.393 6.757-2.769 8.435-4.375 6.008-5.735-.9-.505-1.652-1.703-1.652-2.64 0-.872-.37-1.228-1.721-1.231zM26.49-57c-1.103 0-2.59.336-3.705.984-1.324.77-1.035 1.004 1.341 1.016 1.671.008 3.356-.457 3.74-1.016.446-.648-.273-.984-1.376-.984zm89.369 7.012a1.1 1.1 0 0 0-.395.141c-.47.29-.6.912-.31 1.383a1.002 1.002 0 0 0 1.692-1.072.966.966 0 0 0-.987-.452zm-220.385 3.989c1.48-.039 5.547 1.29 6.276 2.167.392.47.314.85-.17.831-1.509-.055-7.06-2.49-6.547-2.872.09-.066.23-.12.441-.126zm-284.763.003a5.083 5.083 0 0 0-.775.028c-.26.029-.486.082-.645.167-.503.268-.334 1.066.355 1.782 1.369 1.422 6.777 1.329 6.328-.112-.259-.828-3.287-1.776-5.263-1.865zm262.148.008c-.129.02-.277.069-.395.141-.47.29-.6.912-.31 1.383a1.002 1.002 0 0 0 1.692-1.072.966.966 0 0 0-.987-.452zm-5 1c-.129.02-.277.069-.395.141a1.002 1.002 0 1 0 1.382.31.966.966 0 0 0-.987-.45zm-3.212 2.99c-.267.023-.565.225-.917.562-.71.68-.944 2.09-.514 3.161.568 1.418 1.115 1.637 2.055.738.71-.68.943-2.124.513-3.196-.355-.886-.692-1.303-1.137-1.265zm-9.596 1.009c-1.68.143-3.68 1.607-2.861 2.68.372.487 1.739.386 3.125-.214 1.745-.755 2.113-1.367 1.205-2.1-.375-.304-.909-.414-1.469-.366zM68.82-39.984c-.685.124-1.287 1.194-.905 2.434.261.848.06 1.849-.425 2.222-.484.373-.631 1.176-.34 1.764.292.588.919.735 1.416.352.497-.382.702-.958.424-1.305-.278-.346-.084-1.31.453-2.116s.723-1.988.396-2.646c-.206-.417-.47-.643-.736-.705a.656.656 0 0 0-.283 0zm107.85 2.997c.201-.02.416-.016.626 0 1.402.108 2.943.957 3.619 2.256 1.557 2.992 1.45 3.873-.383 3.15-.844-.334-1.971-.156-2.505.393-.552.568-1.51-.19-2.227-1.754-.694-1.512-.998-3.018-.662-3.364.385-.396.927-.622 1.532-.68zm-92.405 3.988c-1.033.028-1.743 1.272-.872 2.45.54.732 1.079.732 1.953 0 .873-.73.873-1.31 0-2.042-.37-.31-.737-.418-1.081-.408zm-187.405 1.011c-.129.02-.277.069-.395.141a1.002 1.002 0 1 0 1.382.31.966.966 0 0 0-.987-.45zm248 0c-.129.02-.277.069-.395.141a1.002 1.002 0 1 0 1.382.31.966.966 0 0 0-.987-.45zm-524 1c-.129.02-.277.069-.395.141a1.002 1.002 0 1 0 1.382.31.966.966 0 0 0-.987-.45zM82.003-24.99c-.528.098-1.778.948-3.606 2.605-3.68 3.339-5.51 7.775-3.678 8.87.658.393.684 1.199.073 1.971-1.185 1.498 1.742 4.682 4.297 4.682.914 0 1.77 1.384 1.967 3.168.262 2.378-.303 3.406-2.222 4.153-1.402.546-2.088 1.017-1.53 1.056.56.04.362.83-.436 1.76-1.21 1.409-1.059 1.69.947 1.69 3.985 0 4.191 2.286.327 3.695-4.917 1.794-4.56 3.14.474 1.795 2.24-.597 4.73-1.016 5.535-.915 5.423.683 8.358-.63 9.542-4.294.6-1.858.341-2.534-.947-2.534-2.022 0-2.992-1.238-3.678-4.682-.48-2.41-4.455-7.418-7.247-9.151-1.12-.695-.97-1.583.582-3.872 1.975-2.914 1.972-2.969-.582-2.323-3.691.933-4.355-.894-1.53-4.365 1.875-2.304 2.39-3.435 1.712-3.309zm-448.144 1.003c-.129.02-.277.069-.395.141a1.002 1.002 0 1 0 1.382.31.966.966 0 0 0-.987-.45zm435 0c-.129.02-.277.069-.395.141a1.002 1.002 0 1 0 1.382.31.966.966 0 0 0-.987-.45zm83 0c-.129.02-.277.069-.395.141-.47.29-.6.912-.31 1.383a1.002 1.002 0 0 0 1.692-1.072.966.966 0 0 0-.987-.452zm-489.431 1.99c-1.612.133-6.428 3.758-6.428 5.126 0 .511.337 1.292.74 1.746.973 1.098 6.9-5.33 6.159-6.682l.101-.152-.168.114a.457.457 0 0 0-.404-.152zm44.431 1.01c-.129.02-.277.069-.395.141a1.002 1.002 0 1 0 1.382.31.966.966 0 0 0-.987-.45zm362 1c-.129.02-.277.069-.395.141a1.002 1.002 0 1 0 1.382.31.966.966 0 0 0-.987-.45zm70.405-.011c-1.033.028-1.743 1.272-.872 2.45.54.732 1.08.732 1.953 0 .873-.73.873-1.31 0-2.042-.37-.31-.737-.418-1.081-.408zm-526.405 5.011c-.129.02-.277.069-.395.141a1.002 1.002 0 1 0 1.382.31.966.966 0 0 0-.987-.45zm43 0a1.1 1.1 0 0 0-.395.141 1.002 1.002 0 1 0 1.382.31.966.966 0 0 0-.987-.45zm207 1c-.129.02-.277.069-.395.141a1.002 1.002 0 1 0 1.382.31.966.966 0 0 0-.987-.45zm-148.747 1.99a.428.428 0 0 0-.202.04c-.872.331-1.208 2.81-.604 4.468.195.534.696.64 1.122.277.958-.814.617-4.645-.316-4.785zm-62.253.01c-.129.02-.277.069-.395.141a1.002 1.002 0 1 0 1.382.31.966.966 0 0 0-.987-.45zm903 0c-.129.02-.277.069-.395.141a1.002 1.002 0 1 0 1.382.31.966.966 0 0 0-.987-.45zM122.264-9.999c-1.033.028-1.743 1.272-.872 2.45.54.732 1.079.732 1.953 0 .873-.73.873-1.31 0-2.042-.37-.31-.737-.418-1.081-.408zm8.595 1.011c-.129.02-.277.069-.395.141a1.002 1.002 0 1 0 1.382.31.966.966 0 0 0-.987-.45zM67.426-9.993c-.612.046-1.085.328-1.542.82-.69.743-.89 1.664-.44 2.067.45.403-.36 1.01-1.799 1.346-1.976.461-2.307.946-1.358 1.968.873.94.893 1.562.037 2.034C61.246-1.162 60.473 3 61.443 3c.201 0 2.506-.93 5.139-2.067 4.008-1.73 4.888-2.662 5.286-5.71.387-2.965-.008-3.827-2.13-4.691-.948-.386-1.7-.571-2.312-.525zM-372.14-8.988c-.129.02-.277.069-.395.141a1.002 1.002 0 1 0 1.382.31.966.966 0 0 0-.987-.45zM489.874-8c-.675 0-.968.462-.655 1.033.313.57-.201 2.734-1.114 4.794-1.404 3.168-1.434 4.318-.295 7.413.79 2.148 1.254 7.406 1.114 12.724-.197 7.496.038 9.036 1.376 9.036.89 0 1.605-.648 1.605-1.475 0-.827-.472-1.849-1.048-2.25-1.168-.812-1.438-6.827-.36-8.04.379-.427 1.322-.207 2.096.516 1.52 1.421 1.962-.153.557-1.991-1.704-2.23-3.447-13.35-2.752-17.519.486-2.918.317-4.241-.524-4.241zm69.985 2.012c-.129.02-.277.069-.395.141a1.002 1.002 0 1 0 1.382.31.966.966 0 0 0-.987-.45zm-939.36-.01c-.988.046-1.864.998-1.345 1.976.297.558.92 1.022 1.375 1.022 1.31 0 2.011-1.972.965-2.725a1.544 1.544 0 0 0-.994-.273zm93.765.999c-1.033.028-1.743 1.272-.872 2.45.54.732 1.079.732 1.953 0 .873-.73.873-1.31 0-2.042-.37-.31-.737-.418-1.081-.408zm-98.405 2.011a1.1 1.1 0 0 0-.395.141 1.002 1.002 0 1 0 1.382.31.966.966 0 0 0-.987-.45zm959 2a1.1 1.1 0 0 0-.395.141c-.47.29-.6.912-.31 1.383a1.002 1.002 0 0 0 1.692-1.072.966.966 0 0 0-.987-.452zm-716.609-1.01c-.247-.02-.499.15-.765.495-.71.919-.64 1.843.206 3.164 1.673 2.61 3.086 1.106 1.825-1.944-.456-1.104-.854-1.682-1.266-1.715zM-283.853.003c-.036-.009-.052 0-.078.036-.208.284.067 2.174.624 4.193.558 2.018 1.138 3.187 1.274 2.629.136-.558-.164-2.448-.65-4.193-.424-1.527-.915-2.603-1.17-2.665zm810.117 6.998c-1.033.028-1.743 1.272-.872 2.45.54.732 1.079.732 1.953 0 .873-.73.873-1.31 0-2.042-.37-.31-.737-.418-1.081-.408zm-795.729 3.013c-.455.058-.656.284-.46.646.35.645 1.61 1.171 2.796 1.171 1.188 0 2.696 1.163 3.363 2.585.667 1.421 1.746 2.584 2.372 2.584 1.969 0-3.943-6.094-6.62-6.824a5.054 5.054 0 0 0-.92-.162 2.517 2.517 0 0 0-.53 0zm200.896 1c-1.068.144-3.207 1.358-5.584 3.525-4.186 3.817-4.49 4.463-3.11 6.344 1.517 2.069 3.665 2.05 9.295-.105 1.393-.533 1.763-.364 1.166.599-.468.755-.516 2.257-.106 3.313.694 1.783.827 1.755 2.227-.141.969-1.313 1.778-1.591 2.262-.81.413.667 1.248.891 1.837.528.59-.363.753-1.14.39-1.727-.365-.588-1.193-.715-1.839-.317-.735.453-.899-.134-.459-1.516 1-3.142-2.883-6.427-6.326-5.357-2.568.797-2.573.763-.566-1.48 1.88-2.1 1.881-2.998.813-2.855zM-161 12c.55 0 1 .45 1 1s-.45 1-1 1-1-.45-1-1 .45-1 1-1zm72.064 2.005a3.555 3.555 0 0 0-.876.154c-1.63.482-1.623.633.27 1.695 2.42 1.358 4.52 1.527 5.424.411.785-.967-2.53-2.36-4.818-2.26zm611.795-.993a1.1 1.1 0 0 0-.395.141c-.47.29-.6.912-.31 1.383a1.002 1.002 0 0 0 1.692-1.072.966.966 0 0 0-.987-.452zm-3 4c-.129.02-.277.069-.395.141-.47.29-.6.912-.31 1.383a1.002 1.002 0 0 0 1.692-1.072.966.966 0 0 0-.987-.452zm-677.506.995c.638.044 1.347.292 2.326.738 1.684.768 3.87 3.13 4.873 5.243 1.526 3.217 2.727 4.025 7.347 4.874 3.036.559 5.741 1.679 6.018 2.511.277.833-.16 1.364-.997 1.182-.87-.19-1.811 1.184-2.215 3.212-.705 3.54-.73 3.538-2.215.85-.818-1.481-1.917-2.412-2.474-2.068-.556.344-.768-.38-.443-1.625.384-1.467-.247-2.729-1.772-3.545-1.974-1.056-2.669-.712-4.467 1.994-1.18 1.775-2.454 5.605-2.806 8.53-.406 3.37-.975 4.756-1.588 3.803-.532-.827-.813-2.954-.627-4.727.185-1.772 0-3.737-.407-4.393-1.029-1.666 1.593-4.963 4.394-5.502 6.719-1.294-3.706-5.776-11.593-4.985-4.383.44-4.637.355-2.03-.775 1.624-.704 4.092-2.33 5.464-3.619 1.328-1.248 2.147-1.772 3.212-1.698zm31.147 2.995c.329-.015.682.048.994.273 1.046.753.345 2.725-.965 2.725-.454 0-1.079-.464-1.375-1.022-.519-.978.357-1.93 1.346-1.976zm643.359 1.01c-.129.02-.277.069-.395.141a1.002 1.002 0 1 0 1.382.31.966.966 0 0 0-.987-.45zm-588 1c-.129.02-.277.069-.395.141a1.002 1.002 0 1 0 1.382.31.966.966 0 0 0-.987-.45zM234.889 26c1.824.003 2.208.58 2.208 2.563 0 1.893-.495 2.502-1.612 2.078-.881-.334-2.173.126-2.91 1.004-.738.878-.986 1.593-.527 1.593.46 0 .273.665-.42 1.49-.968 1.152-.627 2.163 1.437 4.363 1.479 1.576 2.424 3.148 2.104 3.464-.32.316-.254 1.47.175 2.563.725 1.847.887 1.83 2.174.104 1.282-1.72 1.486-1.698 2.735.277 1.159 1.832 1.037 2.147-.841 2.147-3.034 0-3.9 1.845-1.508 3.22 1.093.63 1.677 1.16 1.297 1.178-.38.019-.302 2.008.14 4.399.71 3.828.5 4.402-1.577 4.952-4.35 1.154-7.036.682-9.152-1.627-1.99-2.172-2-2.55-.28-7.273 1.506-4.138 1.55-5.095.28-5.576-2.085-.79-6.34-12.325-5.505-14.927.81-2.518 6.626-5.692 10.905-5.957.322-.02.616-.035.876-.035zm-372.03 1.012c.387-.06.77.099.987.452a1.003 1.003 0 0 1-1.692 1.072c-.29-.47-.16-1.092.31-1.383.118-.072.266-.121.395-.14zm646 0c-.129.02-.277.069-.395.141a1.002 1.002 0 1 0 1.382.31.966.966 0 0 0-.987-.45zM259.072 29c1.427 0 1.137 5.134-.382 6.71-1.81 1.876-2.748 1.714-3.583-.541-.688-1.86 2.08-6.169 3.965-6.169zm246.428.002c-.989.046-1.865.998-1.346 1.976.296.558.92 1.022 1.375 1.022 1.31 0 2.011-1.972.965-2.725a1.545 1.545 0 0 0-.994-.273zM486.536 30v.072c-.804.282-1.209 1.575-1.209 3.874 0 2.175-.616 3.373-1.739 3.373-2.613 0-3.256 1.753-1.89 5.166 1.175 2.93 4.582 3.498 3.894.646-.21-.869.529-1.15 1.965-.718 1.33.401 2.924-.019 3.817-1.04.84-.961 2.244-1.758 3.137-1.758 2.044 0 4.539-4.205 3.023-5.095-.607-.356-1.873-.372-2.796-.035-.924.336-2.936-.683-4.498-2.26-1.637-1.655-2.823-2.367-3.628-2.153l-.076-.072zm16.323 2.012c-.129.02-.277.069-.395.141a1.002 1.002 0 1 0 1.382.31.966.966 0 0 0-.987-.45zm-629.435 3c.134-.016.232-.016.32 0 .237.04.312.206.214.458-.338.873-2.323 2.04-4.416 2.612-2.094.573-5.559 2.375-7.694 3.988-2.135 1.614-4.534 2.93-5.343 2.93-2.205 0 3.051-3.62 11.007-7.589 2.936-1.464 4.977-2.296 5.912-2.4zm626.435 1c-.129.02-.277.069-.395.141-.47.29-.6.912-.31 1.383a1.002 1.002 0 0 0 1.692-1.072.966.966 0 0 0-.987-.452zm-386.595 4.989c-1.033.028-1.743 1.272-.872 2.45.54.732 1.079.732 1.953 0 .873-.73.873-1.31 0-2.042-.37-.31-.737-.418-1.081-.408zm370.777 6.001c-1.292.053-2.271 1.08-2.473 2.915-.737 6.72-1.368 8.208-2.96 6.86-.966-.819-1.802-.883-2.23-.178-.37.612-.13 1.472.523 1.884.824.52.775 1.221-.14 2.345-.988 1.217-1.69 1.314-2.82.356-1.176-.995-1.727-.662-2.543 1.528-.817 2.192-2.062 2.943-5.747 3.448-3.102.424-5.67 1.662-7.454 3.625-1.981 2.18-3.089 2.678-4.11 1.813-2.507-2.123-2.846.154-.523 3.483 1.247 1.787 1.932 3.783 1.533 4.443-.4.66-.446 1.97-.105 2.88 1.093 2.905 3.06 1.766 4.807-2.773 1.236-3.21 2.231-4.281 3.623-3.91 1.051.28 2.55-.268 3.343-1.244 1.224-1.504 1.05-1.966-1.184-2.879-2.607-1.065-2.616-1.066-.174-1.137 1.449-.043 2.995.954 3.762 2.417 1.286 2.453 1.364 2.457 3.134.284 1.224-1.502 3.201-2.226 6.235-2.24h4.459l1.671-7.001c.92-3.854 2.049-7.394 2.508-7.855 1.345-1.351.961-6.911-.557-8.069-.923-.703-1.802-1.026-2.578-.995zm-370.754 1c-.67.048-1.287.884-1.287 2.504 0 2.231.436 2.84 1.65 2.32.9-.385 1.494-1.505 1.32-2.504-.279-1.6-1.014-2.367-1.683-2.32zm-10.813 1a2.37 2.37 0 0 0-.47.028 2.385 2.385 0 0 0-.629.201c-.815.38-1.915.71-2.433.718-.518.007-.942.31-.942.688v1.206c0 .282.706.171 1.57-.23.863-.4 1.994-.761 2.512-.832.518-.07 1.262-.195 1.648-.258.387-.063.356-.549-.078-1.062-.244-.289-.699-.443-1.178-.46zm-9.615 5.01c-.129.02-.277.069-.395.141-.47.29-.6.912-.31 1.383a1.002 1.002 0 0 0 1.692-1.072.966.966 0 0 0-.987-.452zM127.443 59c-4.214 0-4.618.99-.89 2.175 3.844 1.223 4.447 1.14 4.447-.61 0-1.217-.79-1.565-3.557-1.565zm19.416 1.012a1.1 1.1 0 0 0-.395.141c-.47.29-.6.912-.31 1.383a1.002 1.002 0 0 0 1.692-1.072.966.966 0 0 0-.987-.452zm-25 2a1.1 1.1 0 0 0-.395.141 1.002 1.002 0 1 0 1.382.31.966.966 0 0 0-.987-.45zm43 0c-.129.02-.277.069-.395.141a1.002 1.002 0 1 0 1.382.31.966.966 0 0 0-.987-.45zm-7 1c-.129.02-.277.069-.395.141a1.002 1.002 0 1 0 1.382.31.966.966 0 0 0-.987-.45zM182.267 66c-.535-.003-1.074.09-1.51.333-.69.386-.962 1.154-.59 1.7.9 1.317 3.758 1.282 4.679-.066.671-.983-.972-1.958-2.579-1.967zm-54.408 1.012c-.129.02-.277.069-.395.141a1.002 1.002 0 1 0 1.382.31.966.966 0 0 0-.987-.45zm-4 1a1.1 1.1 0 0 0-.395.141 1.002 1.002 0 1 0 1.382.31.966.966 0 0 0-.987-.45zm34.874.08c-.281.033-.523.266-.658.65-.27.77.21 1.258 1.063 1.158.943-.111 1.126-.635.48-1.374-.292-.334-.604-.467-.885-.434zm286.126 5.92c-.129.02-.277.069-.395.141a1.002 1.002 0 1 0 1.382.31.966.966 0 0 0-.987-.45zm-539 3c-.129.02-.277.069-.395.141a1.002 1.002 0 1 0 1.382.31.966.966 0 0 0-.987-.45zm135 0c-.129.02-.277.069-.395.141-.47.29-.6.912-.31 1.383a1.002 1.002 0 0 0 1.692-1.072.966.966 0 0 0-.987-.452zm409 0c-.129.02-.277.069-.395.141a1.002 1.002 0 1 0 1.382.31.966.966 0 0 0-.987-.45zm-411 15c-.129.02-.277.069-.395.141a1.002 1.002 0 1 0 1.382.31.966.966 0 0 0-.987-.45zm10 1a1.1 1.1 0 0 0-.395.141 1.002 1.002 0 1 0 1.382.31.966.966 0 0 0-.987-.45zm405 0a1.1 1.1 0 0 0-.395.141c-.47.29-.6.912-.31 1.383a1.002 1.002 0 0 0 1.692-1.072.966.966 0 0 0-.987-.452zm-411 1a1.1 1.1 0 0 0-.395.141c-.47.29-.6.912-.31 1.383a1.002 1.002 0 0 0 1.692-1.072.966.966 0 0 0-.987-.452zm-175 2c-.129.02-.277.069-.395.141a1.002 1.002 0 1 0 1.382.31.966.966 0 0 0-.987-.45zm171 0c-.129.02-.277.069-.395.141-.47.29-.6.912-.31 1.383a1.002 1.002 0 0 0 1.692-1.072.966.966 0 0 0-.987-.452zm-166 2c-.129.02-.277.069-.395.141a1.002 1.002 0 1 0 1.382.31.966.966 0 0 0-.987-.45zM448.902 97c-1.114.02-2.409 2.643-1.7 4.354.425 1.024 1.008.834 1.965-.594.942-1.405 1.074-2.396.451-3.324-.212-.317-.46-.44-.716-.436zm-207.043 4.012c-.129.02-.277.069-.395.141-.47.29-.6.912-.31 1.383a1.002 1.002 0 0 0 1.692-1.072.966.966 0 0 0-.987-.452zm-374 1c-.129.02-.277.069-.395.141a1.002 1.002 0 1 0 1.382.31.966.966 0 0 0-.987-.45zm5 0c-.129.02-.277.069-.395.141a1.002 1.002 0 1 0 1.382.31.966.966 0 0 0-.987-.45zm568 4c-.129.02-.277.069-.395.141a1.002 1.002 0 1 0 1.382.31.966.966 0 0 0-.987-.45zm-571 0c-.129.02-.277.069-.395.141a1.002 1.002 0 1 0 1.382.31.966.966 0 0 0-.987-.45zm4 0a1.1 1.1 0 0 0-.395.141 1.002 1.002 0 1 0 1.382.31.966.966 0 0 0-.987-.45zm563 0a1.1 1.1 0 0 0-.395.141 1.002 1.002 0 1 0 1.382.31.966.966 0 0 0-.987-.45zm-6.336-1.003c-.204.04-.497.21-.848.483-1.703 1.322-2.297 6.711-.884 8.033 1.081 1.012 1.182.795 1.916-4.585.41-2.999.427-4.05-.184-3.93zm-557.428 3.998a1.496 1.496 0 0 0-.503.147c-.6.302-.766.949-.396 1.438s1.108.656 1.654.381c.545-.275 1.321-.064 1.725.47.404.533 1.234.713 1.833.41.6-.302.766-.948.396-1.437-.37-.49-1.108-.657-1.654-.382-.545.275-1.321.064-1.725-.47-.303-.4-.828-.606-1.33-.557zM-142.784 111c-1.817-.004-3.278.487-4.652 1.447-2.194 1.534-2.172 1.585.654 2.585 1.6.566 2.777 1.372 2.617 1.758-.602 1.45-.235 1.897.945 1.206.834-.489.786-1.211-.145-2.275-.942-1.076-.99-1.55-.11-1.55 1.904 0 14.073 5.617 13.959 6.444-.055.393-.04 1.096.036 1.55.24 1.442 6.797.889 8.178-.689 1.07-1.222-.495-2.386-8.142-6.065-6.271-3.017-10.31-4.405-13.34-4.411zm24.643.012c-.129.02-.277.069-.395.141a1.002 1.002 0 1 0 1.382.31.966.966 0 0 0-.987-.45zm-240 3c-.129.02-.277.069-.395.141a1.002 1.002 0 1 0 1.382.31.966.966 0 0 0-.987-.45zm244 0c-.129.02-.277.069-.395.141-.47.29-.6.912-.31 1.383a1.002 1.002 0 0 0 1.692-1.072.966.966 0 0 0-.987-.452zm-240.36.99c-.988.046-1.864.998-1.345 1.976.297.558.92 1.022 1.375 1.022 1.31 0 2.011-1.972.965-2.725a1.544 1.544 0 0 0-.994-.273zm237.36 2.01c-.129.02-.277.069-.395.141a1.002 1.002 0 1 0 1.382.31.966.966 0 0 0-.987-.45zm-231.82 2a1.402 1.402 0 0 0-.508.166c-.733.417-.705 1.14.072 2.001.664.736.922 1.62.544 1.968-.377.347-.348 1.141.073 1.767 1 1.488 2.591 1.44 3.626-.1.454-.676-.129-1.876-1.306-2.668-1.176-.791-1.748-1.434-1.269-1.434.479 0 .546-.504.145-1.1-.3-.447-.86-.667-1.378-.6zm745.946 2.999c-.685.083-1.514.638-1.829 1.61-.373 1.152-.086 1.55.943 1.314.81-.187 1.625-.92 1.828-1.643.272-.966-.256-1.365-.942-1.281zm-511.547 1.992c-1.602-.03-2.62.153-2.297.556.283.352-.363.894-1.41 1.212-2.932.89 3.653 1.696 7.447.91 1.67-.347 3.441-.438 3.936-.203.495.236.886.07.886-.353s-1.3-1.055-2.887-1.415c-1.909-.432-4.074-.677-5.675-.707zm15.062 1c-.989.045-1.865.997-1.346 1.975.296.558.92 1.022 1.375 1.022 1.31 0 2.011-1.972.965-2.725a1.544 1.544 0 0 0-.994-.273zM-130.733 127c-.535-.003-1.074.09-1.51.333-.69.386-.962 1.154-.59 1.7.9 1.317 3.758 1.282 4.679-.066.671-.983-.972-1.958-2.579-1.967zm560.768.003c-1.762.09-2.148 1.146-2.756 5.698-.858 6.433.144 8.44 4.667 9.569 2.998.747 6.959 6.733 5.512 8.327-.459.506-.157.542.662.073.819-.47 1.12-1.469.661-2.228h-.037c-.474-.786.043-.695 1.176.22 4.114 3.315 1.766-.181-3.895-5.808-6.42-6.38-6.732-7.082-4.115-9.24 2.871-2.369 2.247-6.387-1.03-6.574-.313-.018-.593-.05-.845-.037zm-524.176 1.01c-.129.019-.277.068-.395.14a1.002 1.002 0 1 0 1.382.31.966.966 0 0 0-.987-.45zm-58 1a1.1 1.1 0 0 0-.395.14 1.002 1.002 0 1 0 1.382.31.966.966 0 0 0-.987-.45zm64 0c-.129.019-.277.068-.395.14a1.002 1.002 0 1 0 1.382.31.966.966 0 0 0-.987-.45zm3 2a1.1 1.1 0 0 0-.395.14 1.002 1.002 0 1 0 1.382.31.966.966 0 0 0-.987-.45zm103 3c-.129.019-.277.068-.395.14a1.002 1.002 0 1 0 1.382.31.966.966 0 0 0-.987-.45zm7 0a1.1 1.1 0 0 0-.395.14 1.002 1.002 0 1 0 1.382.31.966.966 0 0 0-.987-.45zm-110 0a1.1 1.1 0 0 0-.395.14c-.47.29-.6.912-.31 1.383a1.002 1.002 0 0 0 1.692-1.072.966.966 0 0 0-.987-.452zm584 3c-.129.019-.277.068-.395.14a1.002 1.002 0 1 0 1.382.31.966.966 0 0 0-.987-.45zm61 0c-.129.019-.277.068-.395.14-.47.29-.6.912-.31 1.383a1.002 1.002 0 0 0 1.692-1.072.966.966 0 0 0-.987-.452zm-540 2c-.129.019-.277.068-.395.14-.47.29-.6.912-.31 1.383a1.002 1.002 0 0 0 1.692-1.072.966.966 0 0 0-.987-.452zm5 0c-.129.019-.277.068-.395.14-.47.29-.6.912-.31 1.383a1.002 1.002 0 0 0 1.692-1.072.966.966 0 0 0-.987-.452zm-108.035.003c-.135.025-.29.087-.412.18-.49.37-.658 1.108-.383 1.653.276.545.064 1.322-.47 1.726-.535.404-.715 1.234-.412 1.833.303.6.95.766 1.441.396.49-.37.658-1.109.383-1.654-.276-.545-.064-1.322.47-1.726.535-.403.715-1.234.412-1.833-.227-.45-.626-.651-1.03-.575zm524.035.996c-.129.02-.277.069-.395.141-.47.29-.6.912-.31 1.383a1.002 1.002 0 0 0 1.692-1.072.966.966 0 0 0-.987-.452zm56 1c-.129.02-.277.069-.395.141-.47.29-.6.912-.31 1.383a1.002 1.002 0 0 0 1.692-1.072.966.966 0 0 0-.987-.452zm-576 3c-.129.02-.277.069-.395.141-.47.29-.6.912-.31 1.383a1.002 1.002 0 0 0 1.692-1.072.966.966 0 0 0-.987-.452zm508.405.989c-1.033.028-1.743 1.272-.872 2.45.54.732 1.079.732 1.953 0 .873-.73.873-1.31 0-2.042-.37-.31-.737-.418-1.081-.408zm-532.405 1.011c-.129.02-.277.069-.395.141a1.002 1.002 0 1 0 1.382.31.966.966 0 0 0-.987-.45zm452 0c-.129.02-.277.069-.395.141a1.002 1.002 0 1 0 1.382.31.966.966 0 0 0-.987-.45zm-448 0a1.1 1.1 0 0 0-.395.141 1.002 1.002 0 1 0 1.382.31.966.966 0 0 0-.987-.45zm337 0a1.1 1.1 0 0 0-.395.141 1.002 1.002 0 1 0 1.382.31.966.966 0 0 0-.987-.45zm-324 3c-.129.02-.277.069-.395.141a1.002 1.002 0 1 0 1.382.31.966.966 0 0 0-.987-.45zm513 0c-.129.02-.277.069-.395.141-.47.29-.6.912-.31 1.383a1.002 1.002 0 0 0 1.692-1.072.966.966 0 0 0-.987-.452zm-78 1c-.129.02-.277.069-.395.141-.47.29-.6.912-.31 1.383a1.002 1.002 0 0 0 1.692-1.072.966.966 0 0 0-.987-.452zm83 0c-.129.02-.277.069-.395.141-.47.29-.6.912-.31 1.383a1.002 1.002 0 0 0 1.692-1.072.966.966 0 0 0-.987-.452zm-514 1c-.129.02-.277.069-.395.141-.47.29-.6.912-.31 1.383a1.002 1.002 0 0 0 1.692-1.072.966.966 0 0 0-.987-.452zm-32.524 2.993c-.05.009-.073.024-.116.054-.338.234-.284 1.075.154 1.866.438.792 1.084 1.248 1.422 1.013.339-.234.246-1.075-.192-1.866-.383-.692-.914-1.126-1.268-1.067zM422.804 153c-.657 0-2.804 4.911-2.804 6.407 0 1.459.982.131 2.199-2.951.75-1.901 1.023-3.456.605-3.456zm19.055 1.012c-.129.02-.277.069-.395.141-.47.29-.6.912-.31 1.383a1.002 1.002 0 0 0 1.692-1.072.966.966 0 0 0-.987-.452zm-63 1c-.129.02-.277.069-.395.141a1.002 1.002 0 1 0 1.382.31.966.966 0 0 0-.987-.45zm142 3c-.129.02-.277.069-.395.141-.47.29-.6.912-.31 1.383a1.002 1.002 0 0 0 1.692-1.072.966.966 0 0 0-.987-.452zm49 0c-.129.02-.277.069-.395.141a1.002 1.002 0 1 0 1.382.31.966.966 0 0 0-.987-.45zm-127.36.988c-.71-.014-1.835.485-3.744 1.431-2.345 1.163-3.24 1.245-3.267.28-.043-1.528-3.488 2.47-3.488 4.049 0 .572.785.428 1.725-.315 1.936-1.527 4.149-.669 4.149 1.606 0 2.274 2.548 2.64 4.662.663 1.112-1.039 1.668-2.988 1.395-4.817-.297-1.99-.517-2.878-1.431-2.897zm-127.605 1.002c-.794-.049-1.458.857-1.74 2.723-.688 4.523.986 6.422 4.002 4.573 1.09-.668 1.111-1.644.14-4.337-.696-1.927-1.61-2.91-2.402-2.96zm-22.035 1.01c-.129.02-.277.069-.395.141a1.002 1.002 0 1 0 1.382.31.966.966 0 0 0-.987-.45zm220 0c-.129.02-.277.069-.395.141-.47.29-.6.912-.31 1.383a1.002 1.002 0 0 0 1.692-1.072.966.966 0 0 0-.987-.452zm5 1c-.129.02-.277.069-.395.141a1.002 1.002 0 1 0 1.382.31.966.966 0 0 0-.987-.45zm-51.212 2.99c-.267.023-.565.225-.918.562-.71.68-.943 2.09-.513 3.161.568 1.418 1.115 1.637 2.055.738.71-.68.943-2.124.513-3.196-.355-.886-.692-1.303-1.137-1.265zm-173.788 1.01c-.129.02-.277.069-.395.141-.47.29-.6.912-.31 1.383a1.002 1.002 0 0 0 1.692-1.072.966.966 0 0 0-.987-.452zm60 1c-.129.02-.277.069-.395.141-.47.29-.6.912-.31 1.383a1.002 1.002 0 0 0 1.692-1.072.966.966 0 0 0-.987-.452zm133 0c-.129.02-.277.069-.395.141a1.002 1.002 0 1 0 1.382.31.966.966 0 0 0-.987-.45zm20 0c-.129.02-.277.069-.395.141-.47.29-.6.912-.31 1.383a1.002 1.002 0 0 0 1.692-1.072.966.966 0 0 0-.987-.452zM417.167 166l-6.262 6.244c-3.437 3.438-6.982 6.243-7.908 6.243-.927 0-1.94.985-2.255 2.202-.316 1.22-1.798 2.385-3.292 2.598-2.254.322-2.666.953-2.362 3.79.201 1.874 1.795 5.512 3.507 8.084 2.682 4.026 3.687 4.691 7.264 4.691 2.284 0 4.507.396 4.974.866.468.471 1.473.336 2.219-.288.746-.624 1.69-.786 2.111-.361.421.424.457-.802.072-2.743-.416-2.096-.187-3.858.572-4.33.703-.439 2.032-2.585 2.935-4.765.903-2.18 2.23-3.97 2.97-3.97 1.01 0 1.004-.432-.036-1.696-.761-.925-1.078-2.152-.716-2.743.362-.59-.457-1.371-1.825-1.732-2.454-.647-2.453-.702.68-3.862l3.185-3.175-2.934-2.527-2.899-2.526zm9.692 2.012c-.129.02-.277.069-.395.141-.47.29-.6.912-.31 1.383a1.002 1.002 0 0 0 1.692-1.072.966.966 0 0 0-.987-.452zm73 0c-.129.02-.277.069-.395.141-.47.29-.6.912-.31 1.383a1.002 1.002 0 0 0 1.692-1.072.966.966 0 0 0-.987-.452zm-205 2c-.129.02-.277.069-.395.141-.47.29-.6.912-.31 1.383a1.002 1.002 0 0 0 1.692-1.072.966.966 0 0 0-.987-.452zm252 1a1.1 1.1 0 0 0-.395.141 1.002 1.002 0 1 0 1.382.31.966.966 0 0 0-.987-.45zM357 171l4.54 5.973c2.503 3.291 4.542 6.901 4.542 8 0 1.1 1.267 3.233 2.816 4.757 1.549 1.524 2.841 3.623 2.851 4.646.022 2.309 9.124 13.071 10.666 12.61.62-.186 1.3-1.6 1.513-3.171.215-1.572.9-3.531 1.514-4.314 1.297-1.654.133-4.228-1.443-3.208-1.26.815-7.87-5.425-7.11-6.71.285-.484-2.21-3.705-5.527-7.153-3.317-3.448-6.255-6.933-6.512-7.743-.258-.81-2.117-1.969-4.154-2.58L357 171zm-64.141 4.012c-.129.02-.277.069-.395.141a1.002 1.002 0 1 0 1.382.31.966.966 0 0 0-.987-.45zm100 0a1.1 1.1 0 0 0-.395.141 1.002 1.002 0 1 0 1.382.31.966.966 0 0 0-.987-.45zm-283 1a1.1 1.1 0 0 0-.395.141c-.47.29-.6.912-.31 1.383a1.002 1.002 0 0 0 1.692-1.072.966.966 0 0 0-.987-.452zm249 4c-.129.02-.277.069-.395.141-.47.29-.6.912-.31 1.383a1.002 1.002 0 0 0 1.692-1.072.966.966 0 0 0-.987-.452zm91 0c-.129.02-.277.069-.395.141-.47.29-.6.912-.31 1.383a1.002 1.002 0 0 0 1.692-1.072.966.966 0 0 0-.987-.452zm-340 1c-.129.02-.277.069-.395.141-.47.29-.6.912-.31 1.383a1.002 1.002 0 0 0 1.692-1.072.966.966 0 0 0-.987-.452zm-277 2c-.129.02-.277.069-.395.141a1.002 1.002 0 1 0 1.382.31.966.966 0 0 0-.987-.45zM448.649 186c-1.301 0-1.741 1.142-1.633 4.006.164 4.373 1.515 3.874 2.71-.964.565-2.291.28-3.042-1.077-3.042zm-86.79-1.988a1.1 1.1 0 0 0-.395.141 1.002 1.002 0 1 0 1.382.31.966.966 0 0 0-.987-.45zm209 0c-.129.02-.277.069-.395.141-.47.29-.6.912-.31 1.383a1.002 1.002 0 0 0 1.692-1.072.966.966 0 0 0-.987-.452zm-133.926 1.995c-.738-.017-1.674 0-2.845.034-3.458.104-6.765.69-7.323 1.281-1.91 2.024-3.627 12.867-2.29 14.472.673.81.933 1.951.555 2.563-.573.924 1.455 5.643 2.429 5.643.166 0 .005-1.983-.382-4.397-1.354-8.448 2.193-10.343 3.887-2.077.941 4.589 2.876 4.862 2.95.415.036-2.169-.872-4.099-2.672-5.643-3.275-2.81-2.314-5.42 1.63-4.432 1.59.398 2.638.173 2.638-.554 0-.723-1.632-1.074-4.06-.866-2.754.237-4.265-.162-4.616-1.211-.775-2.32 2.958-4.479 6.49-3.774 1.697.338 3.98.122 5.067-.485 1.105-.617.757-.919-1.458-.97zm-332.074.005c-.129.02-.277.069-.395.141a1.002 1.002 0 1 0 1.382.31.966.966 0 0 0-.987-.45zm351 3c-.129.02-.277.069-.395.141a1.002 1.002 0 1 0 1.382.31.966.966 0 0 0-.987-.45zm-623 0c-.129.02-.277.069-.395.141a1.002 1.002 0 1 0 1.382.31.966.966 0 0 0-.987-.45zm723 0c-.129.02-.277.069-.395.141a1.002 1.002 0 1 0 1.382.31.966.966 0 0 0-.987-.45zm-726.595.989c-1.033.028-1.743 1.272-.872 2.45.54.732 1.079.732 1.953 0 .873-.73.873-1.31 0-2.042-.37-.31-.737-.418-1.081-.408zm8.595 1.011c-.129.02-.277.069-.395.141a1.002 1.002 0 1 0 1.382.31.966.966 0 0 0-.987-.45zm619.96.995c-1.844.107-.486 1.758 3.185 3.113 2.801 1.033 2.907 1.289 1.135 2.546-1.212.861-1.605 1.958-1.025 2.865.65 1.018 1.21 1.102 1.757.248 1.091-1.706 12.023 3.908 14.386 7.392 1.686 2.486 1.628 2.894-.402 5.13-1.852 2.037-1.877 2.337-.257 1.768 1.061-.373 3.831.284 6.15 1.485 4.723 2.446 9.047 2.873 8.602.85-.16-.734 1.14-1.852 2.892-2.477 2.563-.914 3.651-.718 5.564.955 1.308 1.144 2.38 2.753 2.38 3.573 0 .82 1.713 1.962 3.807 2.546 6.076 1.696 6.406 1.386 2.16-2.122-2.2-1.817-4.12-4.481-4.284-5.907a196.95 196.95 0 0 0-.402-3.29c-.241-1.756-13.417-9.361-20.61-11.884l-7.943-2.759-2.745 2.476c-2.629 2.387-2.835 2.402-5.015.495-1.252-1.094-1.993-2.702-1.647-3.572.643-1.62-.11-2.024-5.894-3.254-.777-.166-1.368-.202-1.793-.177zm117.04 1.005c-.129.02-.277.069-.395.141-.47.29-.6.912-.31 1.383a1.002 1.002 0 0 0 1.692-1.072.966.966 0 0 0-.987-.452zm-206 0c-.129.02-.277.069-.395.141-.47.29-.6.912-.31 1.383a1.002 1.002 0 0 0 1.692-1.072.966.966 0 0 0-.987-.452zm101 0c-.129.02-.277.069-.395.141-.47.29-.6.912-.31 1.383a1.002 1.002 0 0 0 1.692-1.072.966.966 0 0 0-.987-.452zm19 0c-.129.02-.277.069-.395.141a1.002 1.002 0 1 0 1.382.31.966.966 0 0 0-.987-.45zm22 0c-.129.02-.277.069-.395.141a1.002 1.002 0 1 0 1.382.31.966.966 0 0 0-.987-.45zm-55.595-.011c-1.033.028-1.743 1.272-.872 2.45.54.732 1.08.732 1.953 0 .873-.73.873-1.31 0-2.042-.37-.31-.737-.418-1.081-.408zm-351.405 1.011c-.129.02-.277.069-.395.141-.47.29-.6.912-.31 1.383a1.002 1.002 0 0 0 1.692-1.072.966.966 0 0 0-.987-.452zm289 0c-.129.02-.277.069-.395.141a1.002 1.002 0 1 0 1.382.31.966.966 0 0 0-.987-.45zm110 0c-.129.02-.277.069-.395.141-.47.29-.6.912-.31 1.383a1.002 1.002 0 0 0 1.692-1.072.966.966 0 0 0-.987-.452zm-62 0c-.129.02-.277.069-.395.141-.47.29-.6.912-.31 1.383a1.002 1.002 0 0 0 1.692-1.072.966.966 0 0 0-.987-.452zm4 0c-.129.02-.277.069-.395.141-.47.29-.6.912-.31 1.383a1.002 1.002 0 0 0 1.692-1.072.966.966 0 0 0-.987-.452zm134 0c-.129.02-.277.069-.395.141-.47.29-.6.912-.31 1.383a1.002 1.002 0 0 0 1.692-1.072.966.966 0 0 0-.987-.452zm4 3c-.129.02-.277.069-.395.141a1.002 1.002 0 1 0 1.382.31.966.966 0 0 0-.987-.45zm-191 0c-.129.02-.277.069-.395.141-.47.29-.6.912-.31 1.383a1.002 1.002 0 0 0 1.692-1.072.966.966 0 0 0-.987-.452zm123.935-.01c-1.053-.057-1.188 1.396.39 3.789 1.395 2.117 2.468 2.688 3.344 1.817.875-.87.53-2.017-1.011-3.712-1.153-1.266-2.09-1.86-2.723-1.894zm-146.64 1.01c-.27-.095-.18.352.223 1.408.445 1.168 1.117 1.846 1.482 1.481s-.005-1.344-.815-2.148c-.44-.435-.728-.683-.89-.74zm83.87-.003c-.66.03-1.317.129-1.9.342-.948.349-1.381 1.174-.967 1.816.923 1.427 6.843.89 6.843-.617 0-1.001-1.998-1.633-3.977-1.541zm-8.165 1.003c-.129.02-.277.069-.395.141a1.002 1.002 0 1 0 1.382.31.966.966 0 0 0-.987-.45zm-199 3c-.129.02-.277.069-.395.141a1.002 1.002 0 1 0 1.382.31.966.966 0 0 0-.987-.45zm269.342-1.003c-.446.059-1.077.382-1.865 1.076-1.051.926-2.467 1.68-3.143 1.68-1.643 0-2.75 1.889-1.9 3.227 1.093 1.72 2.661 1.275 5.63-1.613 2.332-2.27 2.614-4.544 1.278-4.37zm-313.342 3.003c-.129.02-.277.069-.395.141-.47.29-.6.912-.31 1.383a1.002 1.002 0 0 0 1.692-1.072.966.966 0 0 0-.987-.452zm261 3c-.129.02-.277.069-.395.141-.47.29-.6.912-.31 1.383a1.002 1.002 0 0 0 1.692-1.072.966.966 0 0 0-.987-.452zm43 0c-.129.02-.277.069-.395.141-.47.29-.6.912-.31 1.383a1.002 1.002 0 0 0 1.692-1.072.966.966 0 0 0-.987-.452zm-66 0c-.129.02-.277.069-.395.141-.47.29-.6.912-.31 1.383a1.002 1.002 0 0 0 1.692-1.072.966.966 0 0 0-.987-.452zm28 0c-.129.02-.277.069-.395.141-.47.29-.6.912-.31 1.383a1.002 1.002 0 0 0 1.692-1.072.966.966 0 0 0-.987-.452zm57 0c-.129.02-.277.069-.395.141-.47.29-.6.912-.31 1.383a1.002 1.002 0 0 0 1.692-1.072.966.966 0 0 0-.987-.452zm-287 1c-.129.02-.277.069-.395.141a1.002 1.002 0 1 0 1.382.31.966.966 0 0 0-.987-.45zm-36 0a1.1 1.1 0 0 0-.395.141c-.47.29-.6.912-.31 1.383a1.002 1.002 0 0 0 1.692-1.072.966.966 0 0 0-.987-.452zm327 0c-.129.02-.277.069-.395.141-.47.29-.6.912-.31 1.383a1.002 1.002 0 0 0 1.692-1.072.966.966 0 0 0-.987-.452zM386.24 210.01c-.563.04-.898.204-1.098.522-.97 1.533 3.146 3.67 8.824 4.56 8.941 1.4 11.035 1.822 11.589 2.366.862.846 2.454.665 2.445-.278-.017-1.822-7.472-5.745-9.781-5.152-1.312.337-4.638-.136-7.372-1.044-2.176-.723-3.668-1.04-4.607-.974zm22.26-.007c-.989.046-1.865.998-1.346 1.976.297.558.92 1.022 1.375 1.022 1.31 0 2.011-1.972.965-2.725a1.544 1.544 0 0 0-.994-.273zm5.359-.99c-.129.02-.277.069-.395.141-.47.29-.6.912-.31 1.383a1.002 1.002 0 0 0 1.692-1.072.966.966 0 0 0-.987-.452zm170 0c-.129.02-.277.069-.395.141-.47.29-.6.912-.31 1.383a1.002 1.002 0 0 0 1.692-1.072.966.966 0 0 0-.987-.452zm-49.36 2.99c-.988.046-1.864.998-1.345 1.976.297.558.92 1.022 1.375 1.022 1.31 0 2.011-1.972.965-2.725a1.544 1.544 0 0 0-.994-.273zm-102.64-.99c-.129.02-.277.069-.395.141a1.002 1.002 0 1 0 1.382.31.966.966 0 0 0-.987-.45zm16 1a1.1 1.1 0 0 0-.395.141 1.002 1.002 0 1 0 1.382.31.966.966 0 0 0-.987-.45zm8.64.99c-.988.046-1.864.998-1.345 1.976.296.558.92 1.022 1.375 1.022 1.31 0 2.011-1.972.965-2.725a1.544 1.544 0 0 0-.994-.273zm73.36 1.01a1.1 1.1 0 0 0-.395.141 1.002 1.002 0 1 0 1.382.31.966.966 0 0 0-.987-.45zm59 0a1.1 1.1 0 0 0-.395.141 1.002 1.002 0 1 0 1.382.31.966.966 0 0 0-.987-.45zm-47.49.99a1.427 1.427 0 0 0-.833.228c-.746.475-.709.991.083 1.975.744.924 1.357 1.035 2 .372.963-.993-.062-2.528-1.25-2.576zm-339.51.01c-.129.02-.277.069-.395.141a1.002 1.002 0 1 0 1.382.31.966.966 0 0 0-.987-.45zm250 0c-.129.02-.277.069-.395.141a1.002 1.002 0 1 0 1.382.31.966.966 0 0 0-.987-.45zm-6.703.01c-3.052.392-10.139 5.9-9.042 7.545.54.811 2.118.487 4.86-1.013 5.65-3.09 7.152-4.896 5.237-6.358-.234-.179-.62-.23-1.055-.175zm-32.297-.01c-.129.02-.277.069-.395.141-.47.29-.6.912-.31 1.383a1.002 1.002 0 0 0 1.692-1.072.966.966 0 0 0-.987-.452zm23 0c-.129.02-.277.069-.395.141-.47.29-.6.912-.31 1.383a1.002 1.002 0 0 0 1.692-1.072.966.966 0 0 0-.987-.452zm-8.592-.012c-.535-.003-1.074.09-1.51.333-.69.386-.962 1.154-.59 1.7.9 1.317 3.758 1.282 4.679-.066.671-.983-.972-1.958-2.579-1.967zm-9.025 2.006c-.609.029-1.214.134-1.705.309-.536.19-.7.673-.357 1.066.914 1.047 6.5.665 5.751-.393-.405-.574-1.726-.944-3.094-.982a7.647 7.647 0 0 0-.595 0zm118.617 1.006c-.129.02-.277.069-.395.141-.47.29-.6.912-.31 1.383a1.002 1.002 0 0 0 1.692-1.072.966.966 0 0 0-.987-.452zm-111 4c-.129.02-.277.069-.395.141-.47.29-.6.912-.31 1.383a1.002 1.002 0 0 0 1.692-1.072.966.966 0 0 0-.987-.452zm6 0c-.129.02-.277.069-.395.141-.47.29-.6.912-.31 1.383a1.002 1.002 0 0 0 1.692-1.072.966.966 0 0 0-.987-.452zm111 0c-.129.02-.277.069-.395.141-.47.29-.6.912-.31 1.383a1.002 1.002 0 0 0 1.692-1.072.966.966 0 0 0-.987-.452zm-25 1c-.129.02-.277.069-.395.141-.47.29-.6.912-.31 1.383a1.002 1.002 0 0 0 1.692-1.072.966.966 0 0 0-.987-.452zm19 3a1.1 1.1 0 0 0-.395.141c-.47.29-.6.912-.31 1.383a1.002 1.002 0 0 0 1.692-1.072.966.966 0 0 0-.987-.452zm-76.497-.999c-.327.054-.36.273-.108.682.414.67-.557 2.077-2.146 3.12-1.588 1.044-2.627 2.308-2.324 2.799.302.49-.236 1.545-1.18 2.331-1.244 1.035-1.38 1.808-.501 2.87.668.807.824 1.734.322 2.045-1.817 1.124-8.817-.1-9.442-1.65-.896-2.22-3.505-2.509-3.505-.395 0 .96-1.23 2.317-2.754 3.013-1.57.718-2.548 1.899-2.217 2.763.32.838.216 2.148-.25 2.905-.613.995-1.282.811-2.397-.717-1.488-2.042-1.55-2.044-1.68.107-.075 1.226-.057 2.844.035 3.588.175 1.419-6.756 7.246-8.619 7.246-1.126 0-6.37 2.648-12.732 6.42-4.185 2.483-4.924 6.398-1.86 9.794 1.127 1.249 1.555 2.88 1.073 4.125-.748 1.937-.888 1.925-2.432-.179-.945-1.288-1.645-1.607-1.645-.753 0 .812 1.073 3.014 2.396 4.878 2.672 3.764 6.095 18.248 5.293 22.456-.397 2.085.248 3.094 2.79 4.413 3.083 1.599 3.558 1.534 7.546-1.184 2.376-1.62 5.887-2.906 7.94-2.906 2.34 0 4.796-1.045 6.76-2.87 1.697-1.578 4.413-2.87 6.008-2.87 1.594 0 4.468-.556 6.401-1.22 5.285-1.813 14.186 1.772 16.595 6.673.996 2.026 2.076 3.68 2.432 3.695.355.014 1.552-1.859 2.646-4.161 1.468-3.088 2.31-3.854 3.255-2.906.945.948.954 2.09-.036 4.269-1.758 3.871-1.716 4.542.25 2.906 1.178-.98 1.821-.97 2.397-.036.433.704.503 1.576.143 1.937s.625 2.163 2.181 4.018c1.557 1.854 2.826 4.105 2.826 4.986 0 2.502 7.045 3.982 9.37 1.973 1.68-1.452 2.162-1.372 4.006.645 2.698 2.953 2.507 2.966 5.114-.358 1.31-1.671 3.21-2.737 4.613-2.583 1.637.18 2.483-.471 2.683-2.045.368-2.896 2.484-8.988 5.185-14.923 2.697-5.924 5.562-29.544 3.505-28.949-1.082.314-7.01-3.904-7.01-4.986 0-.526-1.263-2.327-2.825-4.017-1.562-1.69-2.6-3.512-2.289-4.018.312-.507-.474-1.243-1.752-1.65-3.145-1.001-6.867-8.664-6.867-14.134 0-2.958-.742-5.118-2.217-6.457-1.223-1.11-2.58-3.645-3.004-5.632-.425-1.986-1.042-4.103-1.395-4.7-.863-1.455-3.472 5.945-3.612 10.26-.114 3.473-3.966 13.201-5.222 13.201-.372 0-3.5-2.089-6.974-4.663-5.904-4.375-6.293-4.92-5.58-8.322.421-2.003 1.226-4.136 1.789-4.736 1.356-1.443 1.327-4.396-.036-3.551-.586.363-1.346.171-1.716-.43-.371-.602-1.594-1.037-2.683-.969-1.089.068-3.19-.298-4.685-.79-.91-.299-1.533-.412-1.86-.358zm-251.503 2c-.129.019-.277.068-.395.14a1.002 1.002 0 1 0 1.382.31.966.966 0 0 0-.987-.45zm4 3c-.129.019-.277.068-.395.14-.47.29-.6.912-.31 1.383a1.002 1.002 0 0 0 1.692-1.072.966.966 0 0 0-.987-.452zm14.883-.004c-.365.06-.626.55-.626 1.324 0 3.187-3.605 7.611-7.877 9.636-4.72 2.238-6.62 6.162-5.595 11.622.495 2.641.123 4.781-1.252 6.878-2.044 3.117-1.878 6.095.773 12.799 1.076 2.72 1.764 3.103 4.38 2.464 1.706-.417 3.488-1.35 3.976-2.06 1.077-1.564 2.384-6.504 5.006-18.94 1.092-5.179 2.445-10.284 2.982-11.328 1.143-2.22.126-11.402-1.362-12.321a.572.572 0 0 0-.405-.074zm-11.883 2.003c-.129.02-.277.069-.395.141-.47.29-.6.912-.31 1.383a1.002 1.002 0 0 0 1.692-1.072.966.966 0 0 0-.987-.452zm258 0c-.129.02-.277.069-.395.141-.47.29-.6.912-.31 1.383a1.002 1.002 0 0 0 1.692-1.072.966.966 0 0 0-.987-.452zm142.236 2.995a1.495 1.495 0 0 0-.503.147c-.6.302-.766.949-.396 1.438s1.108.656 1.654.381c.545-.275 1.321-.064 1.725.47.404.533 1.234.713 1.833.41.6-.302.766-.948.396-1.437-.37-.49-1.108-.657-1.654-.382-.545.275-1.321.064-1.725-.47-.303-.4-.828-.606-1.33-.557zm-60.236 5.005a1.1 1.1 0 0 0-.395.141c-.47.29-.6.912-.31 1.383a1.002 1.002 0 0 0 1.692-1.072.966.966 0 0 0-.987-.452zm-314 3a1.1 1.1 0 0 0-.395.141 1.002 1.002 0 1 0 1.382.31.966.966 0 0 0-.987-.45zm314 1c-.129.02-.277.069-.395.141a1.002 1.002 0 1 0 1.382.31.966.966 0 0 0-.987-.45zm36 0a1.1 1.1 0 0 0-.395.141c-.47.29-.6.912-.31 1.383a1.002 1.002 0 0 0 1.692-1.072.966.966 0 0 0-.987-.452zm-32 2a1.1 1.1 0 0 0-.395.141c-.47.29-.6.912-.31 1.383a1.002 1.002 0 0 0 1.692-1.072.966.966 0 0 0-.987-.452zm-892 1c-.129.02-.277.069-.395.141a1.002 1.002 0 1 0 1.382.31.966.966 0 0 0-.987-.45zm921 0c-.129.02-.277.069-.395.141-.47.29-.6.912-.31 1.383a1.002 1.002 0 0 0 1.692-1.072.966.966 0 0 0-.987-.452zm-917 2c-.129.02-.277.069-.395.141a1.002 1.002 0 1 0 1.382.31.966.966 0 0 0-.987-.45zm937 6a1.1 1.1 0 0 0-.395.141c-.47.29-.6.912-.31 1.383a1.002 1.002 0 0 0 1.692-1.072.966.966 0 0 0-.987-.452zm-904 2c-.129.02-.277.069-.395.141a1.002 1.002 0 1 0 1.382.31.966.966 0 0 0-.987-.45zm545 0c-.129.02-.277.069-.395.141-.47.29-.6.912-.31 1.383a1.002 1.002 0 0 0 1.692-1.072.966.966 0 0 0-.987-.452zm300.402.995c-.356.032-.664.151-.87.348-.824.792-.354 1.686 1.486 2.925 3.084 2.074 4.046 2.215 5.001.73.855-1.327-2.993-3.853-5.255-4.003a2.291 2.291 0 0 0-.362 0zm-304.402.005a1.1 1.1 0 0 0-.395.141 1.002 1.002 0 1 0 1.382.31.966.966 0 0 0-.987-.45zm359 0c-.129.02-.277.069-.395.141-.47.29-.6.912-.31 1.383a1.002 1.002 0 0 0 1.692-1.072.966.966 0 0 0-.987-.452zm-911 2c-.129.02-.277.069-.395.141a1.002 1.002 0 1 0 1.382.31.966.966 0 0 0-.987-.45zm17 5c-.129.02-.277.069-.395.141-.47.29-.6.912-.31 1.383a1.002 1.002 0 0 0 1.692-1.072.966.966 0 0 0-.987-.452zm16 5c-.129.02-.277.069-.395.141a1.002 1.002 0 1 0 1.382.31.966.966 0 0 0-.987-.45zm11 2a1.1 1.1 0 0 0-.395.141 1.002 1.002 0 1 0 1.382.31.966.966 0 0 0-.987-.45zm56 3c-.129.02-.277.069-.395.141-.47.29-.6.912-.31 1.383a1.002 1.002 0 0 0 1.692-1.072.966.966 0 0 0-.987-.452zm-14 3c-.129.02-.277.069-.395.141a1.002 1.002 0 1 0 1.382.31.966.966 0 0 0-.987-.45zm85 26c-.129.02-.277.069-.395.141-.47.29-.6.912-.31 1.383a1.002 1.002 0 0 0 1.692-1.072.966.966 0 0 0-.987-.452zm707.399 2.99c-.068-.005-.142-.005-.184.037-.324.32.449 2.059 1.73 3.857 3.624 5.083 4.25 8.276 2.21 11.354-1.68 2.533-1.62 2.797.515 3.348 1.36.352 2.284 1.581 2.284 3.02 0 3.761 2.186 2.886 3.35-1.346.574-2.081 1.652-3.653 2.394-3.493.742.16 1.326-.176 1.326-.764 0-.589.373-2.006.81-3.13.624-1.607.347-1.858-1.289-1.237-1.49.565-2.278.087-2.725-1.602-.488-1.843-.952-2.05-2.21-1.019-1.248 1.024-1.814.845-2.43-.837-1.098-2.995-4.762-8.116-5.781-8.188zm-99.399 3.01c-.129.02-.277.069-.395.141a1.002 1.002 0 1 0 1.382.31.966.966 0 0 0-.987-.45zm30 15c-.129.02-.277.069-.395.141a1.002 1.002 0 1 0 1.382.31.966.966 0 0 0-.987-.45zm-10 2a1.1 1.1 0 0 0-.395.141c-.47.29-.6.912-.31 1.383a1.002 1.002 0 0 0 1.692-1.072.966.966 0 0 0-.987-.452zm4.704 3.993c-1.879.06-1.816.548-1.098 2.181a69.55 69.55 0 0 1 1.666 4.259c.687 1.968 6.114 2.115 6.321.17.058-.54.536-1.855 1.06-2.93 1.285-2.634.21-3.353-5.375-3.611-1.096-.051-1.948-.088-2.574-.069zm78.121.004c-1.877.18-4.73 2.851-4.73 4.732 0 .688-1.394 2.334-3.104 3.63-5.078 3.845-12.75 14.423-8.722 12.026.645-.384 2.109-.178 3.252.463 2.8 1.57 4.48 1.526 5.95-.178 1.28-1.486 1.441-1.974 1.441-4.875 0-.968 1.355-3.084 2.994-4.661 1.638-1.578 2.67-3.324 2.291-3.914-.379-.59.129-1.404 1.146-1.78 2.3-.85 2.427-4.508.185-5.337-.11-.04-.21-.094-.333-.106a1.972 1.972 0 0 0-.37 0zM-121.736 335c-1.033.028-1.743 1.272-.872 2.45.54.732 1.079.732 1.953 0 .873-.73.873-1.31 0-2.042-.37-.31-.737-.418-1.081-.408zm682.595 21.011c-.129.02-.277.069-.395.141-.47.29-.6.912-.31 1.383a1.002 1.002 0 0 0 1.692-1.072.966.966 0 0 0-.987-.452zm-687 0c-.129.02-.277.069-.395.141-.47.29-.6.912-.31 1.383a1.002 1.002 0 0 0 1.692-1.072.966.966 0 0 0-.987-.452zm407.59 3.99c-1.512-.073-2.119 1.622-.446 3.412 1.982 2.12 3.118 2.122 5.136-.036 1.26-1.348 1.078-2.27-.161-1.616-.024-.106-.194-.055-.486.18-.433-.065-1.349-.547-2.264-1.222-.653-.48-1.276-.693-1.78-.718zm-407.59 1.01a1.1 1.1 0 0 0-.395.141c-.47.29-.6.912-.31 1.383a1.002 1.002 0 0 0 1.692-1.072.966.966 0 0 0-.987-.452zm681 4c-.129.02-.277.069-.395.141-.47.29-.6.912-.31 1.383a1.002 1.002 0 0 0 1.692-1.072.966.966 0 0 0-.987-.452zm-681 3c-.129.02-.277.069-.395.141-.47.29-.6.912-.31 1.383a1.002 1.002 0 0 0 1.692-1.072.966.966 0 0 0-.987-.452zm47.965 2.004c-.135.025-.29.087-.412.18-.49.37-.658 1.108-.383 1.653.276.545.064 1.322-.47 1.726-.535.404-.715 1.234-.412 1.833.303.6.95.766 1.441.396.49-.37.658-1.109.383-1.654-.276-.545-.064-1.322.47-1.726.535-.404.715-1.234.412-1.833-.227-.45-.626-.651-1.03-.575zm-5.248.987c-1.05.073-2.038 1.359-1.345 2.447.475.747.99.738 1.975-.056.923-.744 1.034-1.358.372-2.002-.306-.297-.652-.413-1.002-.389zM-122.28 375c-.378.003-.736.078-1.04.28-1.093.73-.897 1.444.78 2.768 1.243.981 2.132 2.043 1.969 2.366-.163.322-.297.929-.297 1.323 0 .395.577.337 1.263-.12.852-.569.803-1.41-.149-2.647-.765-.996-.946-1.804-.408-1.804.537 0 .356-.659-.372-1.444-.455-.491-1.116-.726-1.746-.722zm417.138 2.012a1.1 1.1 0 0 0-.395.141c-.47.29-.6.912-.31 1.383a1.002 1.002 0 0 0 1.692-1.072.966.966 0 0 0-.987-.452zm-403.049 1.002c-.521.143-.65 1.181-.618 3.038.049 2.716-.34 3.21-2.341 2.965-1.386-.17-2.127.206-1.756.889.353.651 1.993 1.186 3.642 1.186 1.65 0 3.255.48 3.577 1.074.646 1.192 2.54 1.096 4.39-.222.797-.568-.016-2.242-2.439-5.003-2.196-2.502-3.47-3.8-4.195-3.927a.625.625 0 0 0-.26 0zM-19.304 381c-.528-.01-.96.065-1.277.211-.77.354-.476.968.852 1.69 2.48 1.352 4.669 1.463 5.641.291.698-.84-2.926-2.151-5.216-2.192zm-74.837 3.011c-.129.02-.277.069-.395.141a1.002 1.002 0 1 0 1.382.31.966.966 0 0 0-.987-.45zm-13.36 3.99c-.988.046-1.864.998-1.345 1.976.296.558.92 1.022 1.375 1.022 1.31 0 2.011-1.972.965-2.725a1.544 1.544 0 0 0-.994-.273z" mask="url(#b)"/>
    </g>
</svg>
